<svg xmlns="http://www.w3.org/2000/svg" width="400" height="400" viewBox="0 0 400 400"><defs>
<linearGradient id="g" x1="0" y1="0" x2="1" y2="1">
<stop offset="0" stop-color="#FFFFFF"/><stop offset="1" stop-color="#8A8A8A"/></linearGradient>
<pattern id="dots" width="12" height="12" patternUnits="userSpaceOnUse"><circle cx="1" cy="1" r="0.9" fill="#fff" fill-opacity="0.06"/></pattern>
<radialGradient id="glow" cx="0.5" cy="0.5" r="0.5"><stop offset="0" stop-color="#fff" stop-opacity="0.10"/><stop offset="1" stop-color="#fff" stop-opacity="0"/></radialGradient>
</defs>
<path d="M390.00,200.00 L389.79,200.00 L389.16,200.01 L388.12,200.05 L386.66,200.13 L384.81,200.27 L382.56,200.48 L379.93,200.78 L376.93,201.20 L373.58,201.74 L369.90,202.43 L365.90,203.28 L361.60,204.30 L357.04,205.52 L352.22,206.94 L347.18,208.57 L341.93,210.43 L336.51,212.53 L330.94,214.87 L325.25,217.47 L319.46,220.31 L313.61,223.41 L307.71,226.76 L301.80,230.37 L295.91,234.22 L290.04,238.32 L284.24,242.65 L278.53,247.21 L272.92,251.99 L267.45,256.96 L262.12,262.12 L256.96,267.45 L251.99,272.92 L247.21,278.53 L242.65,284.24 L238.32,290.04 L234.22,295.91 L230.37,301.80 L226.76,307.71 L223.41,313.61 L220.31,319.46 L217.47,325.25 L214.87,330.94 L212.53,336.51 L210.43,341.93 L208.57,347.18 L206.94,352.22 L205.52,357.04 L204.30,361.60 L203.28,365.90 L202.43,369.90 L201.74,373.58 L201.20,376.93 L200.78,379.93 L200.48,382.56 L200.27,384.81 L200.13,386.66 L200.05,388.12 L200.01,389.16 L200.00,389.79 L200.00,390.00 L200.00,389.79 L199.99,389.16 L199.95,388.12 L199.87,386.66 L199.73,384.81 L199.52,382.56 L199.22,379.93 L198.80,376.93 L198.26,373.58 L197.57,369.90 L196.72,365.90 L195.70,361.60 L194.48,357.04 L193.06,352.22 L191.43,347.18 L189.57,341.93 L187.47,336.51 L185.13,330.94 L182.53,325.25 L179.69,319.46 L176.59,313.61 L173.24,307.71 L169.63,301.80 L165.78,295.91 L161.68,290.04 L157.35,284.24 L152.79,278.53 L148.01,272.92 L143.04,267.45 L137.88,262.12 L132.55,256.96 L127.08,251.99 L121.47,247.21 L115.76,242.65 L109.96,238.32 L104.09,234.22 L98.20,230.37 L92.29,226.76 L86.39,223.41 L80.54,220.31 L74.75,217.47 L69.06,214.87 L63.49,212.53 L58.07,210.43 L52.82,208.57 L47.78,206.94 L42.96,205.52 L38.40,204.30 L34.10,203.28 L30.10,202.43 L26.42,201.74 L23.07,201.20 L20.07,200.78 L17.44,200.48 L15.19,200.27 L13.34,200.13 L11.88,200.05 L10.84,200.01 L10.21,200.00 L10.00,200.00 L10.21,200.00 L10.84,199.99 L11.88,199.95 L13.34,199.87 L15.19,199.73 L17.44,199.52 L20.07,199.22 L23.07,198.80 L26.42,198.26 L30.10,197.57 L34.10,196.72 L38.40,195.70 L42.96,194.48 L47.78,193.06 L52.82,191.43 L58.07,189.57 L63.49,187.47 L69.06,185.13 L74.75,182.53 L80.54,179.69 L86.39,176.59 L92.29,173.24 L98.20,169.63 L104.09,165.78 L109.96,161.68 L115.76,157.35 L121.47,152.79 L127.08,148.01 L132.55,143.04 L137.88,137.88 L143.04,132.55 L148.01,127.08 L152.79,121.47 L157.35,115.76 L161.68,109.96 L165.78,104.09 L169.63,98.20 L173.24,92.29 L176.59,86.39 L179.69,80.54 L182.53,74.75 L185.13,69.06 L187.47,63.49 L189.57,58.07 L191.43,52.82 L193.06,47.78 L194.48,42.96 L195.70,38.40 L196.72,34.10 L197.57,30.10 L198.26,26.42 L198.80,23.07 L199.22,20.07 L199.52,17.44 L199.73,15.19 L199.87,13.34 L199.95,11.88 L199.99,10.84 L200.00,10.21 L200.00,10.00 L200.00,10.21 L200.01,10.84 L200.05,11.88 L200.13,13.34 L200.27,15.19 L200.48,17.44 L200.78,20.07 L201.20,23.07 L201.74,26.42 L202.43,30.10 L203.28,34.10 L204.30,38.40 L205.52,42.96 L206.94,47.78 L208.57,52.82 L210.43,58.07 L212.53,63.49 L214.87,69.06 L217.47,74.75 L220.31,80.54 L223.41,86.39 L226.76,92.29 L230.37,98.20 L234.22,104.09 L238.32,109.96 L242.65,115.76 L247.21,121.47 L251.99,127.08 L256.96,132.55 L262.12,137.88 L267.45,143.04 L272.92,148.01 L278.53,152.79 L284.24,157.35 L290.04,161.68 L295.91,165.78 L301.80,169.63 L307.71,173.24 L313.61,176.59 L319.46,179.69 L325.25,182.53 L330.94,185.13 L336.51,187.47 L341.93,189.57 L347.18,191.43 L352.22,193.06 L357.04,194.48 L361.60,195.70 L365.90,196.72 L369.90,197.57 L373.58,198.26 L376.93,198.80 L379.93,199.22 L382.56,199.52 L384.81,199.73 L386.66,199.87 L388.12,199.95 L389.16,199.99 L389.79,200.00Z" fill="none" stroke="url(#g)" stroke-width="3.00" stroke-opacity="1.00"/>
<path d="M363.65,200.00 L363.51,200.03 L363.11,200.14 L362.45,200.38 L361.52,200.75 L360.33,201.27 L358.88,201.96 L357.19,202.82 L355.25,203.87 L353.07,205.10 L350.66,206.52 L348.03,208.13 L345.19,209.95 L342.15,211.96 L338.91,214.16 L335.49,216.56 L331.91,219.15 L328.16,221.93 L324.28,224.89 L320.26,228.03 L316.13,231.34 L311.89,234.81 L307.57,238.43 L303.18,242.19 L298.72,246.09 L294.23,250.11 L289.70,254.24 L285.16,258.47 L280.62,262.78 L276.10,267.17 L271.61,271.61 L267.17,276.10 L262.78,280.62 L258.47,285.16 L254.24,289.70 L250.11,294.23 L246.09,298.72 L242.19,303.18 L238.43,307.57 L234.81,311.89 L231.34,316.13 L228.03,320.26 L224.89,324.28 L221.93,328.16 L219.15,331.91 L216.56,335.49 L214.16,338.91 L211.96,342.15 L209.95,345.19 L208.13,348.03 L206.52,350.66 L205.10,353.07 L203.87,355.25 L202.82,357.19 L201.96,358.88 L201.27,360.33 L200.75,361.52 L200.38,362.45 L200.14,363.11 L200.03,363.51 L200.00,363.65 L199.97,363.51 L199.86,363.11 L199.62,362.45 L199.25,361.52 L198.73,360.33 L198.04,358.88 L197.18,357.19 L196.13,355.25 L194.90,353.07 L193.48,350.66 L191.87,348.03 L190.05,345.19 L188.04,342.15 L185.84,338.91 L183.44,335.49 L180.85,331.91 L178.07,328.16 L175.11,324.28 L171.97,320.26 L168.66,316.13 L165.19,311.89 L161.57,307.57 L157.81,303.18 L153.91,298.72 L149.89,294.23 L145.76,289.70 L141.53,285.16 L137.22,280.62 L132.83,276.10 L128.39,271.61 L123.90,267.17 L119.38,262.78 L114.84,258.47 L110.30,254.24 L105.77,250.11 L101.28,246.09 L96.82,242.19 L92.43,238.43 L88.11,234.81 L83.87,231.34 L79.74,228.03 L75.72,224.89 L71.84,221.93 L68.09,219.15 L64.51,216.56 L61.09,214.16 L57.85,211.96 L54.81,209.95 L51.97,208.13 L49.34,206.52 L46.93,205.10 L44.75,203.87 L42.81,202.82 L41.12,201.96 L39.67,201.27 L38.48,200.75 L37.55,200.38 L36.89,200.14 L36.49,200.03 L36.35,200.00 L36.49,199.97 L36.89,199.86 L37.55,199.62 L38.48,199.25 L39.67,198.73 L41.12,198.04 L42.81,197.18 L44.75,196.13 L46.93,194.90 L49.34,193.48 L51.97,191.87 L54.81,190.05 L57.85,188.04 L61.09,185.84 L64.51,183.44 L68.09,180.85 L71.84,178.07 L75.72,175.11 L79.74,171.97 L83.87,168.66 L88.11,165.19 L92.43,161.57 L96.82,157.81 L101.28,153.91 L105.77,149.89 L110.30,145.76 L114.84,141.53 L119.38,137.22 L123.90,132.83 L128.39,128.39 L132.83,123.90 L137.22,119.38 L141.53,114.84 L145.76,110.30 L149.89,105.77 L153.91,101.28 L157.81,96.82 L161.57,92.43 L165.19,88.11 L168.66,83.87 L171.97,79.74 L175.11,75.72 L178.07,71.84 L180.85,68.09 L183.44,64.51 L185.84,61.09 L188.04,57.85 L190.05,54.81 L191.87,51.97 L193.48,49.34 L194.90,46.93 L196.13,44.75 L197.18,42.81 L198.04,41.12 L198.73,39.67 L199.25,38.48 L199.62,37.55 L199.86,36.89 L199.97,36.49 L200.00,36.35 L200.03,36.49 L200.14,36.89 L200.38,37.55 L200.75,38.48 L201.27,39.67 L201.96,41.12 L202.82,42.81 L203.87,44.75 L205.10,46.93 L206.52,49.34 L208.13,51.97 L209.95,54.81 L211.96,57.85 L214.16,61.09 L216.56,64.51 L219.15,68.09 L221.93,71.84 L224.89,75.72 L228.03,79.74 L231.34,83.87 L234.81,88.11 L238.43,92.43 L242.19,96.82 L246.09,101.28 L250.11,105.77 L254.24,110.30 L258.47,114.84 L262.78,119.38 L267.17,123.90 L271.61,128.39 L276.10,132.83 L280.62,137.22 L285.16,141.53 L289.70,145.76 L294.23,149.89 L298.72,153.91 L303.18,157.81 L307.57,161.57 L311.89,165.19 L316.13,168.66 L320.26,171.97 L324.28,175.11 L328.16,178.07 L331.91,180.85 L335.49,183.44 L338.91,185.84 L342.15,188.04 L345.19,190.05 L348.03,191.87 L350.66,193.48 L353.07,194.90 L355.25,196.13 L357.19,197.18 L358.88,198.04 L360.33,198.73 L361.52,199.25 L362.45,199.62 L363.11,199.86 L363.51,199.97Z" fill="none" stroke="url(#g)" stroke-width="2.90" stroke-opacity="0.94"/>
<path d="M345.68,200.00 L345.58,200.10 L345.28,200.40 L344.78,200.90 L344.09,201.60 L343.20,202.49 L342.12,203.58 L340.84,204.85 L339.39,206.31 L337.75,207.96 L335.93,209.78 L333.94,211.77 L331.78,213.94 L329.46,216.26 L326.98,218.74 L324.36,221.37 L321.60,224.14 L318.70,227.04 L315.67,230.06 L312.53,233.21 L309.28,236.46 L305.93,239.81 L302.49,243.25 L298.97,246.78 L295.38,250.37 L291.73,254.03 L288.02,257.74 L284.27,261.49 L280.49,265.27 L276.69,269.07 L272.88,272.88 L269.07,276.69 L265.27,280.49 L261.49,284.27 L257.74,288.02 L254.03,291.73 L250.37,295.38 L246.78,298.97 L243.25,302.49 L239.81,305.93 L236.46,309.28 L233.21,312.53 L230.06,315.67 L227.04,318.70 L224.14,321.60 L221.37,324.36 L218.74,326.98 L216.26,329.46 L213.94,331.78 L211.77,333.94 L209.78,335.93 L207.96,337.75 L206.31,339.39 L204.85,340.84 L203.58,342.12 L202.49,343.20 L201.60,344.09 L200.90,344.78 L200.40,345.28 L200.10,345.58 L200.00,345.68 L199.90,345.58 L199.60,345.28 L199.10,344.78 L198.40,344.09 L197.51,343.20 L196.42,342.12 L195.15,340.84 L193.69,339.39 L192.04,337.75 L190.22,335.93 L188.23,333.94 L186.06,331.78 L183.74,329.46 L181.26,326.98 L178.63,324.36 L175.86,321.60 L172.96,318.70 L169.94,315.67 L166.79,312.53 L163.54,309.28 L160.19,305.93 L156.75,302.49 L153.22,298.97 L149.63,295.38 L145.97,291.73 L142.26,288.02 L138.51,284.27 L134.73,280.49 L130.93,276.69 L127.12,272.88 L123.31,269.07 L119.51,265.27 L115.73,261.49 L111.98,257.74 L108.27,254.03 L104.62,250.37 L101.03,246.78 L97.51,243.25 L94.07,239.81 L90.72,236.46 L87.47,233.21 L84.33,230.06 L81.30,227.04 L78.40,224.14 L75.64,221.37 L73.02,218.74 L70.54,216.26 L68.22,213.94 L66.06,211.77 L64.07,209.78 L62.25,207.96 L60.61,206.31 L59.16,204.85 L57.88,203.58 L56.80,202.49 L55.91,201.60 L55.22,200.90 L54.72,200.40 L54.42,200.10 L54.32,200.00 L54.42,199.90 L54.72,199.60 L55.22,199.10 L55.91,198.40 L56.80,197.51 L57.88,196.42 L59.16,195.15 L60.61,193.69 L62.25,192.04 L64.07,190.22 L66.06,188.23 L68.22,186.06 L70.54,183.74 L73.02,181.26 L75.64,178.63 L78.40,175.86 L81.30,172.96 L84.33,169.94 L87.47,166.79 L90.72,163.54 L94.07,160.19 L97.51,156.75 L101.03,153.22 L104.62,149.63 L108.27,145.97 L111.98,142.26 L115.73,138.51 L119.51,134.73 L123.31,130.93 L127.12,127.12 L130.93,123.31 L134.73,119.51 L138.51,115.73 L142.26,111.98 L145.97,108.27 L149.63,104.62 L153.22,101.03 L156.75,97.51 L160.19,94.07 L163.54,90.72 L166.79,87.47 L169.94,84.33 L172.96,81.30 L175.86,78.40 L178.63,75.64 L181.26,73.02 L183.74,70.54 L186.06,68.22 L188.23,66.06 L190.22,64.07 L192.04,62.25 L193.69,60.61 L195.15,59.16 L196.42,57.88 L197.51,56.80 L198.40,55.91 L199.10,55.22 L199.60,54.72 L199.90,54.42 L200.00,54.32 L200.10,54.42 L200.40,54.72 L200.90,55.22 L201.60,55.91 L202.49,56.80 L203.58,57.88 L204.85,59.16 L206.31,60.61 L207.96,62.25 L209.78,64.07 L211.77,66.06 L213.94,68.22 L216.26,70.54 L218.74,73.02 L221.37,75.64 L224.14,78.40 L227.04,81.30 L230.06,84.33 L233.21,87.47 L236.46,90.72 L239.81,94.07 L243.25,97.51 L246.78,101.03 L250.37,104.62 L254.03,108.27 L257.74,111.98 L261.49,115.73 L265.27,119.51 L269.07,123.31 L272.88,127.12 L276.69,130.93 L280.49,134.73 L284.27,138.51 L288.02,142.26 L291.73,145.97 L295.38,149.63 L298.97,153.22 L302.49,156.75 L305.93,160.19 L309.28,163.54 L312.53,166.79 L315.67,169.94 L318.70,172.96 L321.60,175.86 L324.36,178.63 L326.98,181.26 L329.46,183.74 L331.78,186.06 L333.94,188.23 L335.93,190.22 L337.75,192.04 L339.39,193.69 L340.84,195.15 L342.12,196.42 L343.20,197.51 L344.09,198.40 L344.78,199.10 L345.28,199.60 L345.58,199.90Z" fill="none" stroke="url(#g)" stroke-width="2.79" stroke-opacity="0.88"/>
<path d="M329.93,200.00 L329.85,200.23 L329.62,200.76 L329.23,201.53 L328.69,202.53 L327.99,203.73 L327.15,205.11 L326.15,206.67 L325.01,208.39 L323.73,210.27 L322.30,212.30 L320.74,214.46 L319.04,216.76 L317.21,219.17 L315.25,221.70 L313.17,224.33 L310.97,227.06 L308.66,229.88 L306.24,232.78 L303.72,235.75 L301.10,238.79 L298.39,241.88 L295.59,245.02 L292.72,248.21 L289.78,251.43 L286.77,254.67 L283.70,257.93 L280.58,261.20 L277.42,264.47 L274.22,267.74 L270.99,270.99 L267.74,274.22 L264.47,277.42 L261.20,280.58 L257.93,283.70 L254.67,286.77 L251.43,289.78 L248.21,292.72 L245.02,295.59 L241.88,298.39 L238.79,301.10 L235.75,303.72 L232.78,306.24 L229.88,308.66 L227.06,310.97 L224.33,313.17 L221.70,315.25 L219.17,317.21 L216.76,319.04 L214.46,320.74 L212.30,322.30 L210.27,323.73 L208.39,325.01 L206.67,326.15 L205.11,327.15 L203.73,327.99 L202.53,328.69 L201.53,329.23 L200.76,329.62 L200.23,329.85 L200.00,329.93 L199.77,329.85 L199.24,329.62 L198.47,329.23 L197.47,328.69 L196.27,327.99 L194.89,327.15 L193.33,326.15 L191.61,325.01 L189.73,323.73 L187.70,322.30 L185.54,320.74 L183.24,319.04 L180.83,317.21 L178.30,315.25 L175.67,313.17 L172.94,310.97 L170.12,308.66 L167.22,306.24 L164.25,303.72 L161.21,301.10 L158.12,298.39 L154.98,295.59 L151.79,292.72 L148.57,289.78 L145.33,286.77 L142.07,283.70 L138.80,280.58 L135.53,277.42 L132.26,274.22 L129.01,270.99 L125.78,267.74 L122.58,264.47 L119.42,261.20 L116.30,257.93 L113.23,254.67 L110.22,251.43 L107.28,248.21 L104.41,245.02 L101.61,241.88 L98.90,238.79 L96.28,235.75 L93.76,232.78 L91.34,229.88 L89.03,227.06 L86.83,224.33 L84.75,221.70 L82.79,219.17 L80.96,216.76 L79.26,214.46 L77.70,212.30 L76.27,210.27 L74.99,208.39 L73.85,206.67 L72.85,205.11 L72.01,203.73 L71.31,202.53 L70.77,201.53 L70.38,200.76 L70.15,200.23 L70.07,200.00 L70.15,199.77 L70.38,199.24 L70.77,198.47 L71.31,197.47 L72.01,196.27 L72.85,194.89 L73.85,193.33 L74.99,191.61 L76.27,189.73 L77.70,187.70 L79.26,185.54 L80.96,183.24 L82.79,180.83 L84.75,178.30 L86.83,175.67 L89.03,172.94 L91.34,170.12 L93.76,167.22 L96.28,164.25 L98.90,161.21 L101.61,158.12 L104.41,154.98 L107.28,151.79 L110.22,148.57 L113.23,145.33 L116.30,142.07 L119.42,138.80 L122.58,135.53 L125.78,132.26 L129.01,129.01 L132.26,125.78 L135.53,122.58 L138.80,119.42 L142.07,116.30 L145.33,113.23 L148.57,110.22 L151.79,107.28 L154.98,104.41 L158.12,101.61 L161.21,98.90 L164.25,96.28 L167.22,93.76 L170.12,91.34 L172.94,89.03 L175.67,86.83 L178.30,84.75 L180.83,82.79 L183.24,80.96 L185.54,79.26 L187.70,77.70 L189.73,76.27 L191.61,74.99 L193.33,73.85 L194.89,72.85 L196.27,72.01 L197.47,71.31 L198.47,70.77 L199.24,70.38 L199.77,70.15 L200.00,70.07 L200.23,70.15 L200.76,70.38 L201.53,70.77 L202.53,71.31 L203.73,72.01 L205.11,72.85 L206.67,73.85 L208.39,74.99 L210.27,76.27 L212.30,77.70 L214.46,79.26 L216.76,80.96 L219.17,82.79 L221.70,84.75 L224.33,86.83 L227.06,89.03 L229.88,91.34 L232.78,93.76 L235.75,96.28 L238.79,98.90 L241.88,101.61 L245.02,104.41 L248.21,107.28 L251.43,110.22 L254.67,113.23 L257.93,116.30 L261.20,119.42 L264.47,122.58 L267.74,125.78 L270.99,129.01 L274.22,132.26 L277.42,135.53 L280.58,138.80 L283.70,142.07 L286.77,145.33 L289.78,148.57 L292.72,151.79 L295.59,154.98 L298.39,158.12 L301.10,161.21 L303.72,164.25 L306.24,167.22 L308.66,170.12 L310.97,172.94 L313.17,175.67 L315.25,178.30 L317.21,180.83 L319.04,183.24 L320.74,185.54 L322.30,187.70 L323.73,189.73 L325.01,191.61 L326.15,193.33 L327.15,194.89 L327.99,196.27 L328.69,197.47 L329.23,198.47 L329.62,199.24 L329.85,199.77Z" fill="none" stroke="url(#g)" stroke-width="2.69" stroke-opacity="0.81"/>
<path d="M315.46,200.00 L315.40,200.39 L315.21,201.16 L314.91,202.18 L314.47,203.42 L313.92,204.83 L313.25,206.41 L312.46,208.13 L311.55,209.98 L310.53,211.95 L309.39,214.04 L308.13,216.23 L306.77,218.51 L305.30,220.88 L303.73,223.32 L302.05,225.83 L300.28,228.41 L298.41,231.04 L296.45,233.72 L294.40,236.44 L292.27,239.19 L290.05,241.97 L287.77,244.78 L285.40,247.60 L282.98,250.43 L280.49,253.26 L277.94,256.09 L275.34,258.91 L272.69,261.72 L270.00,264.51 L267.27,267.27 L264.51,270.00 L261.72,272.69 L258.91,275.34 L256.09,277.94 L253.26,280.49 L250.43,282.98 L247.60,285.40 L244.78,287.77 L241.97,290.05 L239.19,292.27 L236.44,294.40 L233.72,296.45 L231.04,298.41 L228.41,300.28 L225.83,302.05 L223.32,303.73 L220.88,305.30 L218.51,306.77 L216.23,308.13 L214.04,309.39 L211.95,310.53 L209.98,311.55 L208.13,312.46 L206.41,313.25 L204.83,313.92 L203.42,314.47 L202.18,314.91 L201.16,315.21 L200.39,315.40 L200.00,315.46 L199.61,315.40 L198.84,315.21 L197.82,314.91 L196.58,314.47 L195.17,313.92 L193.59,313.25 L191.87,312.46 L190.02,311.55 L188.05,310.53 L185.96,309.39 L183.77,308.13 L181.49,306.77 L179.12,305.30 L176.68,303.73 L174.17,302.05 L171.59,300.28 L168.96,298.41 L166.28,296.45 L163.56,294.40 L160.81,292.27 L158.03,290.05 L155.22,287.77 L152.40,285.40 L149.57,282.98 L146.74,280.49 L143.91,277.94 L141.09,275.34 L138.28,272.69 L135.49,270.00 L132.73,267.27 L130.00,264.51 L127.31,261.72 L124.66,258.91 L122.06,256.09 L119.51,253.26 L117.02,250.43 L114.60,247.60 L112.23,244.78 L109.95,241.97 L107.73,239.19 L105.60,236.44 L103.55,233.72 L101.59,231.04 L99.72,228.41 L97.95,225.83 L96.27,223.32 L94.70,220.88 L93.23,218.51 L91.87,216.23 L90.61,214.04 L89.47,211.95 L88.45,209.98 L87.54,208.13 L86.75,206.41 L86.08,204.83 L85.53,203.42 L85.09,202.18 L84.79,201.16 L84.60,200.39 L84.54,200.00 L84.60,199.61 L84.79,198.84 L85.09,197.82 L85.53,196.58 L86.08,195.17 L86.75,193.59 L87.54,191.87 L88.45,190.02 L89.47,188.05 L90.61,185.96 L91.87,183.77 L93.23,181.49 L94.70,179.12 L96.27,176.68 L97.95,174.17 L99.72,171.59 L101.59,168.96 L103.55,166.28 L105.60,163.56 L107.73,160.81 L109.95,158.03 L112.23,155.22 L114.60,152.40 L117.02,149.57 L119.51,146.74 L122.06,143.91 L124.66,141.09 L127.31,138.28 L130.00,135.49 L132.73,132.73 L135.49,130.00 L138.28,127.31 L141.09,124.66 L143.91,122.06 L146.74,119.51 L149.57,117.02 L152.40,114.60 L155.22,112.23 L158.03,109.95 L160.81,107.73 L163.56,105.60 L166.28,103.55 L168.96,101.59 L171.59,99.72 L174.17,97.95 L176.68,96.27 L179.12,94.70 L181.49,93.23 L183.77,91.87 L185.96,90.61 L188.05,89.47 L190.02,88.45 L191.87,87.54 L193.59,86.75 L195.17,86.08 L196.58,85.53 L197.82,85.09 L198.84,84.79 L199.61,84.60 L200.00,84.54 L200.39,84.60 L201.16,84.79 L202.18,85.09 L203.42,85.53 L204.83,86.08 L206.41,86.75 L208.13,87.54 L209.98,88.45 L211.95,89.47 L214.04,90.61 L216.23,91.87 L218.51,93.23 L220.88,94.70 L223.32,96.27 L225.83,97.95 L228.41,99.72 L231.04,101.59 L233.72,103.55 L236.44,105.60 L239.19,107.73 L241.97,109.95 L244.78,112.23 L247.60,114.60 L250.43,117.02 L253.26,119.51 L256.09,122.06 L258.91,124.66 L261.72,127.31 L264.51,130.00 L267.27,132.73 L270.00,135.49 L272.69,138.28 L275.34,141.09 L277.94,143.91 L280.49,146.74 L282.98,149.57 L285.40,152.40 L287.77,155.22 L290.05,158.03 L292.27,160.81 L294.40,163.56 L296.45,166.28 L298.41,168.96 L300.28,171.59 L302.05,174.17 L303.73,176.68 L305.30,179.12 L306.77,181.49 L308.13,183.77 L309.39,185.96 L310.53,188.05 L311.55,190.02 L312.46,191.87 L313.25,193.59 L313.92,195.17 L314.47,196.58 L314.91,197.82 L315.21,198.84 L315.40,199.61Z" fill="none" stroke="url(#g)" stroke-width="2.58" stroke-opacity="0.75"/>
<path d="M301.88,200.00 L301.83,200.59 L301.68,201.56 L301.44,202.77 L301.09,204.16 L300.65,205.70 L300.11,207.37 L299.47,209.15 L298.74,211.02 L297.92,212.99 L297.00,215.03 L295.99,217.14 L294.89,219.32 L293.71,221.55 L292.43,223.83 L291.08,226.15 L289.64,228.51 L288.12,230.89 L286.52,233.31 L284.85,235.74 L283.11,238.18 L281.30,240.64 L279.42,243.10 L277.47,245.56 L275.47,248.01 L273.41,250.45 L271.29,252.88 L269.13,255.29 L266.92,257.68 L264.66,260.04 L262.37,262.37 L260.04,264.66 L257.68,266.92 L255.29,269.13 L252.88,271.29 L250.45,273.41 L248.01,275.47 L245.56,277.47 L243.10,279.42 L240.64,281.30 L238.18,283.11 L235.74,284.85 L233.31,286.52 L230.89,288.12 L228.51,289.64 L226.15,291.08 L223.83,292.43 L221.55,293.71 L219.32,294.89 L217.14,295.99 L215.03,297.00 L212.99,297.92 L211.02,298.74 L209.15,299.47 L207.37,300.11 L205.70,300.65 L204.16,301.09 L202.77,301.44 L201.56,301.68 L200.59,301.83 L200.00,301.88 L199.41,301.83 L198.44,301.68 L197.23,301.44 L195.84,301.09 L194.30,300.65 L192.63,300.11 L190.85,299.47 L188.98,298.74 L187.01,297.92 L184.97,297.00 L182.86,295.99 L180.68,294.89 L178.45,293.71 L176.17,292.43 L173.85,291.08 L171.49,289.64 L169.11,288.12 L166.69,286.52 L164.26,284.85 L161.82,283.11 L159.36,281.30 L156.90,279.42 L154.44,277.47 L151.99,275.47 L149.55,273.41 L147.12,271.29 L144.71,269.13 L142.32,266.92 L139.96,264.66 L137.63,262.37 L135.34,260.04 L133.08,257.68 L130.87,255.29 L128.71,252.88 L126.59,250.45 L124.53,248.01 L122.53,245.56 L120.58,243.10 L118.70,240.64 L116.89,238.18 L115.15,235.74 L113.48,233.31 L111.88,230.89 L110.36,228.51 L108.92,226.15 L107.57,223.83 L106.29,221.55 L105.11,219.32 L104.01,217.14 L103.00,215.03 L102.08,212.99 L101.26,211.02 L100.53,209.15 L99.89,207.37 L99.35,205.70 L98.91,204.16 L98.56,202.77 L98.32,201.56 L98.17,200.59 L98.12,200.00 L98.17,199.41 L98.32,198.44 L98.56,197.23 L98.91,195.84 L99.35,194.30 L99.89,192.63 L100.53,190.85 L101.26,188.98 L102.08,187.01 L103.00,184.97 L104.01,182.86 L105.11,180.68 L106.29,178.45 L107.57,176.17 L108.92,173.85 L110.36,171.49 L111.88,169.11 L113.48,166.69 L115.15,164.26 L116.89,161.82 L118.70,159.36 L120.58,156.90 L122.53,154.44 L124.53,151.99 L126.59,149.55 L128.71,147.12 L130.87,144.71 L133.08,142.32 L135.34,139.96 L137.63,137.63 L139.96,135.34 L142.32,133.08 L144.71,130.87 L147.12,128.71 L149.55,126.59 L151.99,124.53 L154.44,122.53 L156.90,120.58 L159.36,118.70 L161.82,116.89 L164.26,115.15 L166.69,113.48 L169.11,111.88 L171.49,110.36 L173.85,108.92 L176.17,107.57 L178.45,106.29 L180.68,105.11 L182.86,104.01 L184.97,103.00 L187.01,102.08 L188.98,101.26 L190.85,100.53 L192.63,99.89 L194.30,99.35 L195.84,98.91 L197.23,98.56 L198.44,98.32 L199.41,98.17 L200.00,98.12 L200.59,98.17 L201.56,98.32 L202.77,98.56 L204.16,98.91 L205.70,99.35 L207.37,99.89 L209.15,100.53 L211.02,101.26 L212.99,102.08 L215.03,103.00 L217.14,104.01 L219.32,105.11 L221.55,106.29 L223.83,107.57 L226.15,108.92 L228.51,110.36 L230.89,111.88 L233.31,113.48 L235.74,115.15 L238.18,116.89 L240.64,118.70 L243.10,120.58 L245.56,122.53 L248.01,124.53 L250.45,126.59 L252.88,128.71 L255.29,130.87 L257.68,133.08 L260.04,135.34 L262.37,137.63 L264.66,139.96 L266.92,142.32 L269.13,144.71 L271.29,147.12 L273.41,149.55 L275.47,151.99 L277.47,154.44 L279.42,156.90 L281.30,159.36 L283.11,161.82 L284.85,164.26 L286.52,166.69 L288.12,169.11 L289.64,171.49 L291.08,173.85 L292.43,176.17 L293.71,178.45 L294.89,180.68 L295.99,182.86 L297.00,184.97 L297.92,187.01 L298.74,188.98 L299.47,190.85 L300.11,192.63 L300.65,194.30 L301.09,195.84 L301.44,197.23 L301.68,198.44 L301.83,199.41Z" fill="none" stroke="url(#g)" stroke-width="2.47" stroke-opacity="0.69"/>
<path d="M288.97,200.00 L288.93,200.78 L288.81,201.91 L288.61,203.24 L288.33,204.71 L287.98,206.29 L287.54,207.96 L287.03,209.71 L286.45,211.53 L285.78,213.40 L285.04,215.33 L284.23,217.30 L283.34,219.30 L282.39,221.34 L281.36,223.41 L280.26,225.49 L279.09,227.60 L277.86,229.72 L276.56,231.84 L275.20,233.97 L273.78,236.10 L272.30,238.23 L270.76,240.35 L269.17,242.46 L267.53,244.56 L265.83,246.64 L264.08,248.70 L262.29,250.74 L260.46,252.75 L258.59,254.73 L256.67,256.67 L254.73,258.59 L252.75,260.46 L250.74,262.29 L248.70,264.08 L246.64,265.83 L244.56,267.53 L242.46,269.17 L240.35,270.76 L238.23,272.30 L236.10,273.78 L233.97,275.20 L231.84,276.56 L229.72,277.86 L227.60,279.09 L225.49,280.26 L223.41,281.36 L221.34,282.39 L219.30,283.34 L217.30,284.23 L215.33,285.04 L213.40,285.78 L211.53,286.45 L209.71,287.03 L207.96,287.54 L206.29,287.98 L204.71,288.33 L203.24,288.61 L201.91,288.81 L200.78,288.93 L200.00,288.97 L199.22,288.93 L198.09,288.81 L196.76,288.61 L195.29,288.33 L193.71,287.98 L192.04,287.54 L190.29,287.03 L188.47,286.45 L186.60,285.78 L184.67,285.04 L182.70,284.23 L180.70,283.34 L178.66,282.39 L176.59,281.36 L174.51,280.26 L172.40,279.09 L170.28,277.86 L168.16,276.56 L166.03,275.20 L163.90,273.78 L161.77,272.30 L159.65,270.76 L157.54,269.17 L155.44,267.53 L153.36,265.83 L151.30,264.08 L149.26,262.29 L147.25,260.46 L145.27,258.59 L143.33,256.67 L141.41,254.73 L139.54,252.75 L137.71,250.74 L135.92,248.70 L134.17,246.64 L132.47,244.56 L130.83,242.46 L129.24,240.35 L127.70,238.23 L126.22,236.10 L124.80,233.97 L123.44,231.84 L122.14,229.72 L120.91,227.60 L119.74,225.49 L118.64,223.41 L117.61,221.34 L116.66,219.30 L115.77,217.30 L114.96,215.33 L114.22,213.40 L113.55,211.53 L112.97,209.71 L112.46,207.96 L112.02,206.29 L111.67,204.71 L111.39,203.24 L111.19,201.91 L111.07,200.78 L111.03,200.00 L111.07,199.22 L111.19,198.09 L111.39,196.76 L111.67,195.29 L112.02,193.71 L112.46,192.04 L112.97,190.29 L113.55,188.47 L114.22,186.60 L114.96,184.67 L115.77,182.70 L116.66,180.70 L117.61,178.66 L118.64,176.59 L119.74,174.51 L120.91,172.40 L122.14,170.28 L123.44,168.16 L124.80,166.03 L126.22,163.90 L127.70,161.77 L129.24,159.65 L130.83,157.54 L132.47,155.44 L134.17,153.36 L135.92,151.30 L137.71,149.26 L139.54,147.25 L141.41,145.27 L143.33,143.33 L145.27,141.41 L147.25,139.54 L149.26,137.71 L151.30,135.92 L153.36,134.17 L155.44,132.47 L157.54,130.83 L159.65,129.24 L161.77,127.70 L163.90,126.22 L166.03,124.80 L168.16,123.44 L170.28,122.14 L172.40,120.91 L174.51,119.74 L176.59,118.64 L178.66,117.61 L180.70,116.66 L182.70,115.77 L184.67,114.96 L186.60,114.22 L188.47,113.55 L190.29,112.97 L192.04,112.46 L193.71,112.02 L195.29,111.67 L196.76,111.39 L198.09,111.19 L199.22,111.07 L200.00,111.03 L200.78,111.07 L201.91,111.19 L203.24,111.39 L204.71,111.67 L206.29,112.02 L207.96,112.46 L209.71,112.97 L211.53,113.55 L213.40,114.22 L215.33,114.96 L217.30,115.77 L219.30,116.66 L221.34,117.61 L223.41,118.64 L225.49,119.74 L227.60,120.91 L229.72,122.14 L231.84,123.44 L233.97,124.80 L236.10,126.22 L238.23,127.70 L240.35,129.24 L242.46,130.83 L244.56,132.47 L246.64,134.17 L248.70,135.92 L250.74,137.71 L252.75,139.54 L254.73,141.41 L256.67,143.33 L258.59,145.27 L260.46,147.25 L262.29,149.26 L264.08,151.30 L265.83,153.36 L267.53,155.44 L269.17,157.54 L270.76,159.65 L272.30,161.77 L273.78,163.90 L275.20,166.03 L276.56,168.16 L277.86,170.28 L279.09,172.40 L280.26,174.51 L281.36,176.59 L282.39,178.66 L283.34,180.70 L284.23,182.70 L285.04,184.67 L285.78,186.60 L286.45,188.47 L287.03,190.29 L287.54,192.04 L287.98,193.71 L288.33,195.29 L288.61,196.76 L288.81,198.09 L288.93,199.22Z" fill="none" stroke="url(#g)" stroke-width="2.37" stroke-opacity="0.63"/>
<path d="M276.58,200.00 L276.55,200.94 L276.46,202.18 L276.30,203.55 L276.08,205.02 L275.79,206.56 L275.45,208.16 L275.04,209.82 L274.57,211.51 L274.04,213.24 L273.45,214.99 L272.80,216.77 L272.08,218.57 L271.32,220.38 L270.49,222.20 L269.61,224.03 L268.67,225.86 L267.68,227.70 L266.63,229.53 L265.53,231.36 L264.38,233.18 L263.18,234.99 L261.94,236.79 L260.64,238.57 L259.30,240.33 L257.92,242.08 L256.50,243.80 L255.03,245.49 L253.53,247.16 L251.99,248.80 L250.41,250.41 L248.80,251.99 L247.16,253.53 L245.49,255.03 L243.80,256.50 L242.08,257.92 L240.33,259.30 L238.57,260.64 L236.79,261.94 L234.99,263.18 L233.18,264.38 L231.36,265.53 L229.53,266.63 L227.70,267.68 L225.86,268.67 L224.03,269.61 L222.20,270.49 L220.38,271.32 L218.57,272.08 L216.77,272.80 L214.99,273.45 L213.24,274.04 L211.51,274.57 L209.82,275.04 L208.16,275.45 L206.56,275.79 L205.02,276.08 L203.55,276.30 L202.18,276.46 L200.94,276.55 L200.00,276.58 L199.06,276.55 L197.82,276.46 L196.45,276.30 L194.98,276.08 L193.44,275.79 L191.84,275.45 L190.18,275.04 L188.49,274.57 L186.76,274.04 L185.01,273.45 L183.23,272.80 L181.43,272.08 L179.62,271.32 L177.80,270.49 L175.97,269.61 L174.14,268.67 L172.30,267.68 L170.47,266.63 L168.64,265.53 L166.82,264.38 L165.01,263.18 L163.21,261.94 L161.43,260.64 L159.67,259.30 L157.92,257.92 L156.20,256.50 L154.51,255.03 L152.84,253.53 L151.20,251.99 L149.59,250.41 L148.01,248.80 L146.47,247.16 L144.97,245.49 L143.50,243.80 L142.08,242.08 L140.70,240.33 L139.36,238.57 L138.06,236.79 L136.82,234.99 L135.62,233.18 L134.47,231.36 L133.37,229.53 L132.32,227.70 L131.33,225.86 L130.39,224.03 L129.51,222.20 L128.68,220.38 L127.92,218.57 L127.20,216.77 L126.55,214.99 L125.96,213.24 L125.43,211.51 L124.96,209.82 L124.55,208.16 L124.21,206.56 L123.92,205.02 L123.70,203.55 L123.54,202.18 L123.45,200.94 L123.42,200.00 L123.45,199.06 L123.54,197.82 L123.70,196.45 L123.92,194.98 L124.21,193.44 L124.55,191.84 L124.96,190.18 L125.43,188.49 L125.96,186.76 L126.55,185.01 L127.20,183.23 L127.92,181.43 L128.68,179.62 L129.51,177.80 L130.39,175.97 L131.33,174.14 L132.32,172.30 L133.37,170.47 L134.47,168.64 L135.62,166.82 L136.82,165.01 L138.06,163.21 L139.36,161.43 L140.70,159.67 L142.08,157.92 L143.50,156.20 L144.97,154.51 L146.47,152.84 L148.01,151.20 L149.59,149.59 L151.20,148.01 L152.84,146.47 L154.51,144.97 L156.20,143.50 L157.92,142.08 L159.67,140.70 L161.43,139.36 L163.21,138.06 L165.01,136.82 L166.82,135.62 L168.64,134.47 L170.47,133.37 L172.30,132.32 L174.14,131.33 L175.97,130.39 L177.80,129.51 L179.62,128.68 L181.43,127.92 L183.23,127.20 L185.01,126.55 L186.76,125.96 L188.49,125.43 L190.18,124.96 L191.84,124.55 L193.44,124.21 L194.98,123.92 L196.45,123.70 L197.82,123.54 L199.06,123.45 L200.00,123.42 L200.94,123.45 L202.18,123.54 L203.55,123.70 L205.02,123.92 L206.56,124.21 L208.16,124.55 L209.82,124.96 L211.51,125.43 L213.24,125.96 L214.99,126.55 L216.77,127.20 L218.57,127.92 L220.38,128.68 L222.20,129.51 L224.03,130.39 L225.86,131.33 L227.70,132.32 L229.53,133.37 L231.36,134.47 L233.18,135.62 L234.99,136.82 L236.79,138.06 L238.57,139.36 L240.33,140.70 L242.08,142.08 L243.80,143.50 L245.49,144.97 L247.16,146.47 L248.80,148.01 L250.41,149.59 L251.99,151.20 L253.53,152.84 L255.03,154.51 L256.50,156.20 L257.92,157.92 L259.30,159.67 L260.64,161.43 L261.94,163.21 L263.18,165.01 L264.38,166.82 L265.53,168.64 L266.63,170.47 L267.68,172.30 L268.67,174.14 L269.61,175.97 L270.49,177.80 L271.32,179.62 L272.08,181.43 L272.80,183.23 L273.45,185.01 L274.04,186.76 L274.57,188.49 L275.04,190.18 L275.45,191.84 L275.79,193.44 L276.08,194.98 L276.30,196.45 L276.46,197.82 L276.55,199.06Z" fill="none" stroke="url(#g)" stroke-width="2.27" stroke-opacity="0.57"/>
<path d="M264.64,200.00 L264.61,201.06 L264.54,202.32 L264.41,203.67 L264.24,205.07 L264.02,206.51 L263.74,207.99 L263.42,209.49 L263.05,211.01 L262.63,212.54 L262.16,214.09 L261.65,215.64 L261.08,217.20 L260.47,218.77 L259.82,220.33 L259.12,221.89 L258.37,223.45 L257.59,225.00 L256.75,226.54 L255.88,228.07 L254.96,229.59 L254.01,231.10 L253.01,232.59 L251.98,234.06 L250.90,235.51 L249.79,236.94 L248.65,238.35 L247.47,239.74 L246.26,241.10 L245.01,242.43 L243.74,243.74 L242.43,245.01 L241.10,246.26 L239.74,247.47 L238.35,248.65 L236.94,249.79 L235.51,250.90 L234.06,251.98 L232.59,253.01 L231.10,254.01 L229.59,254.96 L228.07,255.88 L226.54,256.75 L225.00,257.59 L223.45,258.37 L221.89,259.12 L220.33,259.82 L218.77,260.47 L217.20,261.08 L215.64,261.65 L214.09,262.16 L212.54,262.63 L211.01,263.05 L209.49,263.42 L207.99,263.74 L206.51,264.02 L205.07,264.24 L203.67,264.41 L202.32,264.54 L201.06,264.61 L200.00,264.64 L198.94,264.61 L197.68,264.54 L196.33,264.41 L194.93,264.24 L193.49,264.02 L192.01,263.74 L190.51,263.42 L188.99,263.05 L187.46,262.63 L185.91,262.16 L184.36,261.65 L182.80,261.08 L181.23,260.47 L179.67,259.82 L178.11,259.12 L176.55,258.37 L175.00,257.59 L173.46,256.75 L171.93,255.88 L170.41,254.96 L168.90,254.01 L167.41,253.01 L165.94,251.98 L164.49,250.90 L163.06,249.79 L161.65,248.65 L160.26,247.47 L158.90,246.26 L157.57,245.01 L156.26,243.74 L154.99,242.43 L153.74,241.10 L152.53,239.74 L151.35,238.35 L150.21,236.94 L149.10,235.51 L148.02,234.06 L146.99,232.59 L145.99,231.10 L145.04,229.59 L144.12,228.07 L143.25,226.54 L142.41,225.00 L141.63,223.45 L140.88,221.89 L140.18,220.33 L139.53,218.77 L138.92,217.20 L138.35,215.64 L137.84,214.09 L137.37,212.54 L136.95,211.01 L136.58,209.49 L136.26,207.99 L135.98,206.51 L135.76,205.07 L135.59,203.67 L135.46,202.32 L135.39,201.06 L135.36,200.00 L135.39,198.94 L135.46,197.68 L135.59,196.33 L135.76,194.93 L135.98,193.49 L136.26,192.01 L136.58,190.51 L136.95,188.99 L137.37,187.46 L137.84,185.91 L138.35,184.36 L138.92,182.80 L139.53,181.23 L140.18,179.67 L140.88,178.11 L141.63,176.55 L142.41,175.00 L143.25,173.46 L144.12,171.93 L145.04,170.41 L145.99,168.90 L146.99,167.41 L148.02,165.94 L149.10,164.49 L150.21,163.06 L151.35,161.65 L152.53,160.26 L153.74,158.90 L154.99,157.57 L156.26,156.26 L157.57,154.99 L158.90,153.74 L160.26,152.53 L161.65,151.35 L163.06,150.21 L164.49,149.10 L165.94,148.02 L167.41,146.99 L168.90,145.99 L170.41,145.04 L171.93,144.12 L173.46,143.25 L175.00,142.41 L176.55,141.63 L178.11,140.88 L179.67,140.18 L181.23,139.53 L182.80,138.92 L184.36,138.35 L185.91,137.84 L187.46,137.37 L188.99,136.95 L190.51,136.58 L192.01,136.26 L193.49,135.98 L194.93,135.76 L196.33,135.59 L197.68,135.46 L198.94,135.39 L200.00,135.36 L201.06,135.39 L202.32,135.46 L203.67,135.59 L205.07,135.76 L206.51,135.98 L207.99,136.26 L209.49,136.58 L211.01,136.95 L212.54,137.37 L214.09,137.84 L215.64,138.35 L217.20,138.92 L218.77,139.53 L220.33,140.18 L221.89,140.88 L223.45,141.63 L225.00,142.41 L226.54,143.25 L228.07,144.12 L229.59,145.04 L231.10,145.99 L232.59,146.99 L234.06,148.02 L235.51,149.10 L236.94,150.21 L238.35,151.35 L239.74,152.53 L241.10,153.74 L242.43,154.99 L243.74,156.26 L245.01,157.57 L246.26,158.90 L247.47,160.26 L248.65,161.65 L249.79,163.06 L250.90,164.49 L251.98,165.94 L253.01,167.41 L254.01,168.90 L254.96,170.41 L255.88,171.93 L256.75,173.46 L257.59,175.00 L258.37,176.55 L259.12,178.11 L259.82,179.67 L260.47,181.23 L261.08,182.80 L261.65,184.36 L262.16,185.91 L262.63,187.46 L263.05,188.99 L263.42,190.51 L263.74,192.01 L264.02,193.49 L264.24,194.93 L264.41,196.33 L264.54,197.68 L264.61,198.94Z" fill="none" stroke="url(#g)" stroke-width="2.16" stroke-opacity="0.50"/>
<path d="M253.06,200.00 L253.04,201.12 L252.98,202.33 L252.89,203.58 L252.75,204.85 L252.58,206.14 L252.37,207.44 L252.12,208.74 L251.83,210.05 L251.51,211.37 L251.15,212.68 L250.75,213.99 L250.31,215.30 L249.84,216.60 L249.34,217.90 L248.79,219.19 L248.21,220.46 L247.60,221.73 L246.96,222.99 L246.28,224.24 L245.56,225.47 L244.82,226.68 L244.04,227.88 L243.23,229.06 L242.39,230.22 L241.52,231.37 L240.63,232.49 L239.70,233.59 L238.75,234.67 L237.77,235.73 L236.76,236.76 L235.73,237.77 L234.67,238.75 L233.59,239.70 L232.49,240.63 L231.37,241.52 L230.22,242.39 L229.06,243.23 L227.88,244.04 L226.68,244.82 L225.47,245.56 L224.24,246.28 L222.99,246.96 L221.73,247.60 L220.46,248.21 L219.19,248.79 L217.90,249.34 L216.60,249.84 L215.30,250.31 L213.99,250.75 L212.68,251.15 L211.37,251.51 L210.05,251.83 L208.74,252.12 L207.44,252.37 L206.14,252.58 L204.85,252.75 L203.58,252.89 L202.33,252.98 L201.12,253.04 L200.00,253.06 L198.88,253.04 L197.67,252.98 L196.42,252.89 L195.15,252.75 L193.86,252.58 L192.56,252.37 L191.26,252.12 L189.95,251.83 L188.63,251.51 L187.32,251.15 L186.01,250.75 L184.70,250.31 L183.40,249.84 L182.10,249.34 L180.81,248.79 L179.54,248.21 L178.27,247.60 L177.01,246.96 L175.76,246.28 L174.53,245.56 L173.32,244.82 L172.12,244.04 L170.94,243.23 L169.78,242.39 L168.63,241.52 L167.51,240.63 L166.41,239.70 L165.33,238.75 L164.27,237.77 L163.24,236.76 L162.23,235.73 L161.25,234.67 L160.30,233.59 L159.37,232.49 L158.48,231.37 L157.61,230.22 L156.77,229.06 L155.96,227.88 L155.18,226.68 L154.44,225.47 L153.72,224.24 L153.04,222.99 L152.40,221.73 L151.79,220.46 L151.21,219.19 L150.66,217.90 L150.16,216.60 L149.69,215.30 L149.25,213.99 L148.85,212.68 L148.49,211.37 L148.17,210.05 L147.88,208.74 L147.63,207.44 L147.42,206.14 L147.25,204.85 L147.11,203.58 L147.02,202.33 L146.96,201.12 L146.94,200.00 L146.96,198.88 L147.02,197.67 L147.11,196.42 L147.25,195.15 L147.42,193.86 L147.63,192.56 L147.88,191.26 L148.17,189.95 L148.49,188.63 L148.85,187.32 L149.25,186.01 L149.69,184.70 L150.16,183.40 L150.66,182.10 L151.21,180.81 L151.79,179.54 L152.40,178.27 L153.04,177.01 L153.72,175.76 L154.44,174.53 L155.18,173.32 L155.96,172.12 L156.77,170.94 L157.61,169.78 L158.48,168.63 L159.37,167.51 L160.30,166.41 L161.25,165.33 L162.23,164.27 L163.24,163.24 L164.27,162.23 L165.33,161.25 L166.41,160.30 L167.51,159.37 L168.63,158.48 L169.78,157.61 L170.94,156.77 L172.12,155.96 L173.32,155.18 L174.53,154.44 L175.76,153.72 L177.01,153.04 L178.27,152.40 L179.54,151.79 L180.81,151.21 L182.10,150.66 L183.40,150.16 L184.70,149.69 L186.01,149.25 L187.32,148.85 L188.63,148.49 L189.95,148.17 L191.26,147.88 L192.56,147.63 L193.86,147.42 L195.15,147.25 L196.42,147.11 L197.67,147.02 L198.88,146.96 L200.00,146.94 L201.12,146.96 L202.33,147.02 L203.58,147.11 L204.85,147.25 L206.14,147.42 L207.44,147.63 L208.74,147.88 L210.05,148.17 L211.37,148.49 L212.68,148.85 L213.99,149.25 L215.30,149.69 L216.60,150.16 L217.90,150.66 L219.19,151.21 L220.46,151.79 L221.73,152.40 L222.99,153.04 L224.24,153.72 L225.47,154.44 L226.68,155.18 L227.88,155.96 L229.06,156.77 L230.22,157.61 L231.37,158.48 L232.49,159.37 L233.59,160.30 L234.67,161.25 L235.73,162.23 L236.76,163.24 L237.77,164.27 L238.75,165.33 L239.70,166.41 L240.63,167.51 L241.52,168.63 L242.39,169.78 L243.23,170.94 L244.04,172.12 L244.82,173.32 L245.56,174.53 L246.28,175.76 L246.96,177.01 L247.60,178.27 L248.21,179.54 L248.79,180.81 L249.34,182.10 L249.84,183.40 L250.31,184.70 L250.75,186.01 L251.15,187.32 L251.51,188.63 L251.83,189.95 L252.12,191.26 L252.37,192.56 L252.58,193.86 L252.75,195.15 L252.89,196.42 L252.98,197.67 L253.04,198.88Z" fill="none" stroke="url(#g)" stroke-width="2.06" stroke-opacity="0.44"/>
<path d="M241.80,200.00 L241.79,201.09 L241.74,202.19 L241.67,203.28 L241.57,204.37 L241.44,205.46 L241.29,206.54 L241.10,207.62 L240.89,208.69 L240.65,209.76 L240.38,210.82 L240.08,211.87 L239.75,212.92 L239.40,213.95 L239.02,214.98 L238.62,216.00 L238.19,217.00 L237.73,218.00 L237.24,218.98 L236.73,219.95 L236.20,220.90 L235.64,221.84 L235.06,222.77 L234.45,223.68 L233.82,224.57 L233.16,225.45 L232.48,226.31 L231.78,227.15 L231.06,227.97 L230.32,228.77 L229.56,229.56 L228.77,230.32 L227.97,231.06 L227.15,231.78 L226.31,232.48 L225.45,233.16 L224.57,233.82 L223.68,234.45 L222.77,235.06 L221.84,235.64 L220.90,236.20 L219.95,236.73 L218.98,237.24 L218.00,237.73 L217.00,238.19 L216.00,238.62 L214.98,239.02 L213.95,239.40 L212.92,239.75 L211.87,240.08 L210.82,240.38 L209.76,240.65 L208.69,240.89 L207.62,241.10 L206.54,241.29 L205.46,241.44 L204.37,241.57 L203.28,241.67 L202.19,241.74 L201.09,241.79 L200.00,241.80 L198.91,241.79 L197.81,241.74 L196.72,241.67 L195.63,241.57 L194.54,241.44 L193.46,241.29 L192.38,241.10 L191.31,240.89 L190.24,240.65 L189.18,240.38 L188.13,240.08 L187.08,239.75 L186.05,239.40 L185.02,239.02 L184.00,238.62 L183.00,238.19 L182.00,237.73 L181.02,237.24 L180.05,236.73 L179.10,236.20 L178.16,235.64 L177.23,235.06 L176.32,234.45 L175.43,233.82 L174.55,233.16 L173.69,232.48 L172.85,231.78 L172.03,231.06 L171.23,230.32 L170.44,229.56 L169.68,228.77 L168.94,227.97 L168.22,227.15 L167.52,226.31 L166.84,225.45 L166.18,224.57 L165.55,223.68 L164.94,222.77 L164.36,221.84 L163.80,220.90 L163.27,219.95 L162.76,218.98 L162.27,218.00 L161.81,217.00 L161.38,216.00 L160.98,214.98 L160.60,213.95 L160.25,212.92 L159.92,211.87 L159.62,210.82 L159.35,209.76 L159.11,208.69 L158.90,207.62 L158.71,206.54 L158.56,205.46 L158.43,204.37 L158.33,203.28 L158.26,202.19 L158.21,201.09 L158.20,200.00 L158.21,198.91 L158.26,197.81 L158.33,196.72 L158.43,195.63 L158.56,194.54 L158.71,193.46 L158.90,192.38 L159.11,191.31 L159.35,190.24 L159.62,189.18 L159.92,188.13 L160.25,187.08 L160.60,186.05 L160.98,185.02 L161.38,184.00 L161.81,183.00 L162.27,182.00 L162.76,181.02 L163.27,180.05 L163.80,179.10 L164.36,178.16 L164.94,177.23 L165.55,176.32 L166.18,175.43 L166.84,174.55 L167.52,173.69 L168.22,172.85 L168.94,172.03 L169.68,171.23 L170.44,170.44 L171.23,169.68 L172.03,168.94 L172.85,168.22 L173.69,167.52 L174.55,166.84 L175.43,166.18 L176.32,165.55 L177.23,164.94 L178.16,164.36 L179.10,163.80 L180.05,163.27 L181.02,162.76 L182.00,162.27 L183.00,161.81 L184.00,161.38 L185.02,160.98 L186.05,160.60 L187.08,160.25 L188.13,159.92 L189.18,159.62 L190.24,159.35 L191.31,159.11 L192.38,158.90 L193.46,158.71 L194.54,158.56 L195.63,158.43 L196.72,158.33 L197.81,158.26 L198.91,158.21 L200.00,158.20 L201.09,158.21 L202.19,158.26 L203.28,158.33 L204.37,158.43 L205.46,158.56 L206.54,158.71 L207.62,158.90 L208.69,159.11 L209.76,159.35 L210.82,159.62 L211.87,159.92 L212.92,160.25 L213.95,160.60 L214.98,160.98 L216.00,161.38 L217.00,161.81 L218.00,162.27 L218.98,162.76 L219.95,163.27 L220.90,163.80 L221.84,164.36 L222.77,164.94 L223.68,165.55 L224.57,166.18 L225.45,166.84 L226.31,167.52 L227.15,168.22 L227.97,168.94 L228.77,169.68 L229.56,170.44 L230.32,171.23 L231.06,172.03 L231.78,172.85 L232.48,173.69 L233.16,174.55 L233.82,175.43 L234.45,176.32 L235.06,177.23 L235.64,178.16 L236.20,179.10 L236.73,180.05 L237.24,181.02 L237.73,182.00 L238.19,183.00 L238.62,184.00 L239.02,185.02 L239.40,186.05 L239.75,187.08 L240.08,188.13 L240.38,189.18 L240.65,190.24 L240.89,191.31 L241.10,192.38 L241.29,193.46 L241.44,194.54 L241.57,195.63 L241.67,196.72 L241.74,197.81 L241.79,198.91Z" fill="none" stroke="url(#g)" stroke-width="1.95" stroke-opacity="0.38"/>
<circle cx="200" cy="200" r="8.5" fill="#fff" fill-opacity="0.9"/></svg>