<svg xmlns="http://www.w3.org/2000/svg" width="512" height="512" viewBox="0 0 512 512"><defs>
<linearGradient id="g" x1="0" y1="0" x2="1" y2="1">
<stop offset="0" stop-color="#FFFFFF"/><stop offset="1" stop-color="#8A8A8A"/></linearGradient>
<pattern id="dots" width="12" height="12" patternUnits="userSpaceOnUse"><circle cx="1" cy="1" r="0.9" fill="#fff" fill-opacity="0.06"/></pattern>
<radialGradient id="glow" cx="0.5" cy="0.5" r="0.5"><stop offset="0" stop-color="#fff" stop-opacity="0.10"/><stop offset="1" stop-color="#fff" stop-opacity="0"/></radialGradient>
</defs>
<rect width="512" height="512" rx="112" fill="#0A0A0A"/>
<rect width="512" height="512" rx="112" fill="url(#dots)"/>
<circle cx="256" cy="256" r="220" fill="url(#glow)"/>
<rect x="0.5" y="0.5" width="511" height="511" rx="111.5" fill="none" stroke="#fff" stroke-opacity="0.08"/>
<path d="M432.00,256.00 L431.81,256.00 L431.22,256.01 L430.26,256.05 L428.91,256.12 L427.19,256.25 L425.11,256.44 L422.67,256.73 L419.89,257.11 L416.79,257.61 L413.38,258.25 L409.67,259.03 L405.70,259.98 L401.47,261.11 L397.00,262.42 L392.33,263.94 L387.47,265.67 L382.45,267.61 L377.29,269.78 L372.02,272.18 L366.66,274.81 L361.24,277.68 L355.78,280.79 L350.30,284.13 L344.84,287.70 L339.41,291.50 L334.04,295.51 L328.74,299.73 L323.55,304.16 L318.48,308.76 L313.54,313.54 L308.76,318.48 L304.16,323.55 L299.73,328.74 L295.51,334.04 L291.50,339.41 L287.70,344.84 L284.13,350.30 L280.79,355.78 L277.68,361.24 L274.81,366.66 L272.18,372.02 L269.78,377.29 L267.61,382.45 L265.67,387.47 L263.94,392.33 L262.42,397.00 L261.11,401.47 L259.98,405.70 L259.03,409.67 L258.25,413.38 L257.61,416.79 L257.11,419.89 L256.73,422.67 L256.44,425.11 L256.25,427.19 L256.12,428.91 L256.05,430.26 L256.01,431.22 L256.00,431.81 L256.00,432.00 L256.00,431.81 L255.99,431.22 L255.95,430.26 L255.88,428.91 L255.75,427.19 L255.56,425.11 L255.27,422.67 L254.89,419.89 L254.39,416.79 L253.75,413.38 L252.97,409.67 L252.02,405.70 L250.89,401.47 L249.58,397.00 L248.06,392.33 L246.33,387.47 L244.39,382.45 L242.22,377.29 L239.82,372.02 L237.19,366.66 L234.32,361.24 L231.21,355.78 L227.87,350.30 L224.30,344.84 L220.50,339.41 L216.49,334.04 L212.27,328.74 L207.84,323.55 L203.24,318.48 L198.46,313.54 L193.52,308.76 L188.45,304.16 L183.26,299.73 L177.96,295.51 L172.59,291.50 L167.16,287.70 L161.70,284.13 L156.22,280.79 L150.76,277.68 L145.34,274.81 L139.98,272.18 L134.71,269.78 L129.55,267.61 L124.53,265.67 L119.67,263.94 L115.00,262.42 L110.53,261.11 L106.30,259.98 L102.33,259.03 L98.62,258.25 L95.21,257.61 L92.11,257.11 L89.33,256.73 L86.89,256.44 L84.81,256.25 L83.09,256.12 L81.74,256.05 L80.78,256.01 L80.19,256.00 L80.00,256.00 L80.19,256.00 L80.78,255.99 L81.74,255.95 L83.09,255.88 L84.81,255.75 L86.89,255.56 L89.33,255.27 L92.11,254.89 L95.21,254.39 L98.62,253.75 L102.33,252.97 L106.30,252.02 L110.53,250.89 L115.00,249.58 L119.67,248.06 L124.53,246.33 L129.55,244.39 L134.71,242.22 L139.98,239.82 L145.34,237.19 L150.76,234.32 L156.22,231.21 L161.70,227.87 L167.16,224.30 L172.59,220.50 L177.96,216.49 L183.26,212.27 L188.45,207.84 L193.52,203.24 L198.46,198.46 L203.24,193.52 L207.84,188.45 L212.27,183.26 L216.49,177.96 L220.50,172.59 L224.30,167.16 L227.87,161.70 L231.21,156.22 L234.32,150.76 L237.19,145.34 L239.82,139.98 L242.22,134.71 L244.39,129.55 L246.33,124.53 L248.06,119.67 L249.58,115.00 L250.89,110.53 L252.02,106.30 L252.97,102.33 L253.75,98.62 L254.39,95.21 L254.89,92.11 L255.27,89.33 L255.56,86.89 L255.75,84.81 L255.88,83.09 L255.95,81.74 L255.99,80.78 L256.00,80.19 L256.00,80.00 L256.00,80.19 L256.01,80.78 L256.05,81.74 L256.12,83.09 L256.25,84.81 L256.44,86.89 L256.73,89.33 L257.11,92.11 L257.61,95.21 L258.25,98.62 L259.03,102.33 L259.98,106.30 L261.11,110.53 L262.42,115.00 L263.94,119.67 L265.67,124.53 L267.61,129.55 L269.78,134.71 L272.18,139.98 L274.81,145.34 L277.68,150.76 L280.79,156.22 L284.13,161.70 L287.70,167.16 L291.50,172.59 L295.51,177.96 L299.73,183.26 L304.16,188.45 L308.76,193.52 L313.54,198.46 L318.48,203.24 L323.55,207.84 L328.74,212.27 L334.04,216.49 L339.41,220.50 L344.84,224.30 L350.30,227.87 L355.78,231.21 L361.24,234.32 L366.66,237.19 L372.02,239.82 L377.29,242.22 L382.45,244.39 L387.47,246.33 L392.33,248.06 L397.00,249.58 L401.47,250.89 L405.70,252.02 L409.67,252.97 L413.38,253.75 L416.79,254.39 L419.89,254.89 L422.67,255.27 L425.11,255.56 L427.19,255.75 L428.91,255.88 L430.26,255.95 L431.22,255.99 L431.81,256.00Z" fill="none" stroke="url(#g)" stroke-width="3.00" stroke-opacity="1.00"/>
<path d="M407.59,256.00 L407.46,256.03 L407.09,256.13 L406.48,256.35 L405.62,256.69 L404.51,257.18 L403.18,257.82 L401.60,258.62 L399.81,259.58 L397.79,260.72 L395.56,262.04 L393.12,263.54 L390.49,265.21 L387.67,267.08 L384.67,269.12 L381.51,271.34 L378.19,273.74 L374.72,276.32 L371.12,279.06 L367.40,281.97 L363.57,285.03 L359.65,288.24 L355.65,291.60 L351.57,295.08 L347.45,298.69 L343.28,302.41 L339.09,306.24 L334.89,310.16 L330.68,314.15 L326.50,318.22 L322.34,322.34 L318.22,326.50 L314.15,330.68 L310.16,334.89 L306.24,339.09 L302.41,343.28 L298.69,347.45 L295.08,351.57 L291.60,355.65 L288.24,359.65 L285.03,363.57 L281.97,367.40 L279.06,371.12 L276.32,374.72 L273.74,378.19 L271.34,381.51 L269.12,384.67 L267.08,387.67 L265.21,390.49 L263.54,393.12 L262.04,395.56 L260.72,397.79 L259.58,399.81 L258.62,401.60 L257.82,403.18 L257.18,404.51 L256.69,405.62 L256.35,406.48 L256.13,407.09 L256.03,407.46 L256.00,407.59 L255.97,407.46 L255.87,407.09 L255.65,406.48 L255.31,405.62 L254.82,404.51 L254.18,403.18 L253.38,401.60 L252.42,399.81 L251.28,397.79 L249.96,395.56 L248.46,393.12 L246.79,390.49 L244.92,387.67 L242.88,384.67 L240.66,381.51 L238.26,378.19 L235.68,374.72 L232.94,371.12 L230.03,367.40 L226.97,363.57 L223.76,359.65 L220.40,355.65 L216.92,351.57 L213.31,347.45 L209.59,343.28 L205.76,339.09 L201.84,334.89 L197.85,330.68 L193.78,326.50 L189.66,322.34 L185.50,318.22 L181.32,314.15 L177.11,310.16 L172.91,306.24 L168.72,302.41 L164.55,298.69 L160.43,295.08 L156.35,291.60 L152.35,288.24 L148.43,285.03 L144.60,281.97 L140.88,279.06 L137.28,276.32 L133.81,273.74 L130.49,271.34 L127.33,269.12 L124.33,267.08 L121.51,265.21 L118.88,263.54 L116.44,262.04 L114.21,260.72 L112.19,259.58 L110.40,258.62 L108.82,257.82 L107.49,257.18 L106.38,256.69 L105.52,256.35 L104.91,256.13 L104.54,256.03 L104.41,256.00 L104.54,255.97 L104.91,255.87 L105.52,255.65 L106.38,255.31 L107.49,254.82 L108.82,254.18 L110.40,253.38 L112.19,252.42 L114.21,251.28 L116.44,249.96 L118.88,248.46 L121.51,246.79 L124.33,244.92 L127.33,242.88 L130.49,240.66 L133.81,238.26 L137.28,235.68 L140.88,232.94 L144.60,230.03 L148.43,226.97 L152.35,223.76 L156.35,220.40 L160.43,216.92 L164.55,213.31 L168.72,209.59 L172.91,205.76 L177.11,201.84 L181.32,197.85 L185.50,193.78 L189.66,189.66 L193.78,185.50 L197.85,181.32 L201.84,177.11 L205.76,172.91 L209.59,168.72 L213.31,164.55 L216.92,160.43 L220.40,156.35 L223.76,152.35 L226.97,148.43 L230.03,144.60 L232.94,140.88 L235.68,137.28 L238.26,133.81 L240.66,130.49 L242.88,127.33 L244.92,124.33 L246.79,121.51 L248.46,118.88 L249.96,116.44 L251.28,114.21 L252.42,112.19 L253.38,110.40 L254.18,108.82 L254.82,107.49 L255.31,106.38 L255.65,105.52 L255.87,104.91 L255.97,104.54 L256.00,104.41 L256.03,104.54 L256.13,104.91 L256.35,105.52 L256.69,106.38 L257.18,107.49 L257.82,108.82 L258.62,110.40 L259.58,112.19 L260.72,114.21 L262.04,116.44 L263.54,118.88 L265.21,121.51 L267.08,124.33 L269.12,127.33 L271.34,130.49 L273.74,133.81 L276.32,137.28 L279.06,140.88 L281.97,144.60 L285.03,148.43 L288.24,152.35 L291.60,156.35 L295.08,160.43 L298.69,164.55 L302.41,168.72 L306.24,172.91 L310.16,177.11 L314.15,181.32 L318.22,185.50 L322.34,189.66 L326.50,193.78 L330.68,197.85 L334.89,201.84 L339.09,205.76 L343.28,209.59 L347.45,213.31 L351.57,216.92 L355.65,220.40 L359.65,223.76 L363.57,226.97 L367.40,230.03 L371.12,232.94 L374.72,235.68 L378.19,238.26 L381.51,240.66 L384.67,242.88 L387.67,244.92 L390.49,246.79 L393.12,248.46 L395.56,249.96 L397.79,251.28 L399.81,252.42 L401.60,253.38 L403.18,254.18 L404.51,254.82 L405.62,255.31 L406.48,255.65 L407.09,255.87 L407.46,255.97Z" fill="none" stroke="url(#g)" stroke-width="2.90" stroke-opacity="0.94"/>
<path d="M390.94,256.00 L390.85,256.09 L390.57,256.37 L390.11,256.83 L389.47,257.48 L388.65,258.31 L387.64,259.31 L386.47,260.49 L385.12,261.85 L383.60,263.37 L381.91,265.06 L380.07,266.91 L378.07,268.91 L375.92,271.06 L373.63,273.36 L371.20,275.79 L368.64,278.36 L365.95,281.04 L363.15,283.85 L360.24,286.76 L357.23,289.77 L354.13,292.88 L350.94,296.07 L347.68,299.33 L344.35,302.66 L340.97,306.05 L337.53,309.48 L334.06,312.96 L330.56,316.46 L327.04,319.98 L323.51,323.51 L319.98,327.04 L316.46,330.56 L312.96,334.06 L309.48,337.53 L306.05,340.97 L302.66,344.35 L299.33,347.68 L296.07,350.94 L292.88,354.13 L289.77,357.23 L286.76,360.24 L283.85,363.15 L281.04,365.95 L278.36,368.64 L275.79,371.20 L273.36,373.63 L271.06,375.92 L268.91,378.07 L266.91,380.07 L265.06,381.91 L263.37,383.60 L261.85,385.12 L260.49,386.47 L259.31,387.64 L258.31,388.65 L257.48,389.47 L256.83,390.11 L256.37,390.57 L256.09,390.85 L256.00,390.94 L255.91,390.85 L255.63,390.57 L255.17,390.11 L254.52,389.47 L253.69,388.65 L252.69,387.64 L251.51,386.47 L250.15,385.12 L248.63,383.60 L246.94,381.91 L245.09,380.07 L243.09,378.07 L240.94,375.92 L238.64,373.63 L236.21,371.20 L233.64,368.64 L230.96,365.95 L228.15,363.15 L225.24,360.24 L222.23,357.23 L219.12,354.13 L215.93,350.94 L212.67,347.68 L209.34,344.35 L205.95,340.97 L202.52,337.53 L199.04,334.06 L195.54,330.56 L192.02,327.04 L188.49,323.51 L184.96,319.98 L181.44,316.46 L177.94,312.96 L174.47,309.48 L171.03,306.05 L167.65,302.66 L164.32,299.33 L161.06,296.07 L157.87,292.88 L154.77,289.77 L151.76,286.76 L148.85,283.85 L146.05,281.04 L143.36,278.36 L140.80,275.79 L138.37,273.36 L136.08,271.06 L133.93,268.91 L131.93,266.91 L130.09,265.06 L128.40,263.37 L126.88,261.85 L125.53,260.49 L124.36,259.31 L123.35,258.31 L122.53,257.48 L121.89,256.83 L121.43,256.37 L121.15,256.09 L121.06,256.00 L121.15,255.91 L121.43,255.63 L121.89,255.17 L122.53,254.52 L123.35,253.69 L124.36,252.69 L125.53,251.51 L126.88,250.15 L128.40,248.63 L130.09,246.94 L131.93,245.09 L133.93,243.09 L136.08,240.94 L138.37,238.64 L140.80,236.21 L143.36,233.64 L146.05,230.96 L148.85,228.15 L151.76,225.24 L154.77,222.23 L157.87,219.12 L161.06,215.93 L164.32,212.67 L167.65,209.34 L171.03,205.95 L174.47,202.52 L177.94,199.04 L181.44,195.54 L184.96,192.02 L188.49,188.49 L192.02,184.96 L195.54,181.44 L199.04,177.94 L202.52,174.47 L205.95,171.03 L209.34,167.65 L212.67,164.32 L215.93,161.06 L219.12,157.87 L222.23,154.77 L225.24,151.76 L228.15,148.85 L230.96,146.05 L233.64,143.36 L236.21,140.80 L238.64,138.37 L240.94,136.08 L243.09,133.93 L245.09,131.93 L246.94,130.09 L248.63,128.40 L250.15,126.88 L251.51,125.53 L252.69,124.36 L253.69,123.35 L254.52,122.53 L255.17,121.89 L255.63,121.43 L255.91,121.15 L256.00,121.06 L256.09,121.15 L256.37,121.43 L256.83,121.89 L257.48,122.53 L258.31,123.35 L259.31,124.36 L260.49,125.53 L261.85,126.88 L263.37,128.40 L265.06,130.09 L266.91,131.93 L268.91,133.93 L271.06,136.08 L273.36,138.37 L275.79,140.80 L278.36,143.36 L281.04,146.05 L283.85,148.85 L286.76,151.76 L289.77,154.77 L292.88,157.87 L296.07,161.06 L299.33,164.32 L302.66,167.65 L306.05,171.03 L309.48,174.47 L312.96,177.94 L316.46,181.44 L319.98,184.96 L323.51,188.49 L327.04,192.02 L330.56,195.54 L334.06,199.04 L337.53,202.52 L340.97,205.95 L344.35,209.34 L347.68,212.67 L350.94,215.93 L354.13,219.12 L357.23,222.23 L360.24,225.24 L363.15,228.15 L365.95,230.96 L368.64,233.64 L371.20,236.21 L373.63,238.64 L375.92,240.94 L378.07,243.09 L380.07,245.09 L381.91,246.94 L383.60,248.63 L385.12,250.15 L386.47,251.51 L387.64,252.69 L388.65,253.69 L389.47,254.52 L390.11,255.17 L390.57,255.63 L390.85,255.91Z" fill="none" stroke="url(#g)" stroke-width="2.79" stroke-opacity="0.88"/>
<path d="M376.35,256.00 L376.28,256.21 L376.06,256.70 L375.71,257.42 L375.20,258.34 L374.56,259.45 L373.78,260.73 L372.86,262.18 L371.80,263.78 L370.61,265.52 L369.29,267.39 L367.84,269.40 L366.27,271.52 L364.57,273.76 L362.76,276.10 L360.83,278.54 L358.79,281.06 L356.65,283.67 L354.41,286.36 L352.07,289.11 L349.65,291.93 L347.14,294.79 L344.55,297.71 L341.89,300.66 L339.16,303.64 L336.37,306.64 L333.53,309.66 L330.64,312.69 L327.71,315.72 L324.75,318.75 L321.76,321.76 L318.75,324.75 L315.72,327.71 L312.69,330.64 L309.66,333.53 L306.64,336.37 L303.64,339.16 L300.66,341.89 L297.71,344.55 L294.79,347.14 L291.93,349.65 L289.11,352.07 L286.36,354.41 L283.67,356.65 L281.06,358.79 L278.54,360.83 L276.10,362.76 L273.76,364.57 L271.52,366.27 L269.40,367.84 L267.39,369.29 L265.52,370.61 L263.78,371.80 L262.18,372.86 L260.73,373.78 L259.45,374.56 L258.34,375.20 L257.42,375.71 L256.70,376.06 L256.21,376.28 L256.00,376.35 L255.79,376.28 L255.30,376.06 L254.58,375.71 L253.66,375.20 L252.55,374.56 L251.27,373.78 L249.82,372.86 L248.22,371.80 L246.48,370.61 L244.61,369.29 L242.60,367.84 L240.48,366.27 L238.24,364.57 L235.90,362.76 L233.46,360.83 L230.94,358.79 L228.33,356.65 L225.64,354.41 L222.89,352.07 L220.07,349.65 L217.21,347.14 L214.29,344.55 L211.34,341.89 L208.36,339.16 L205.36,336.37 L202.34,333.53 L199.31,330.64 L196.28,327.71 L193.25,324.75 L190.24,321.76 L187.25,318.75 L184.29,315.72 L181.36,312.69 L178.47,309.66 L175.63,306.64 L172.84,303.64 L170.11,300.66 L167.45,297.71 L164.86,294.79 L162.35,291.93 L159.93,289.11 L157.59,286.36 L155.35,283.67 L153.21,281.06 L151.17,278.54 L149.24,276.10 L147.43,273.76 L145.73,271.52 L144.16,269.40 L142.71,267.39 L141.39,265.52 L140.20,263.78 L139.14,262.18 L138.22,260.73 L137.44,259.45 L136.80,258.34 L136.29,257.42 L135.94,256.70 L135.72,256.21 L135.65,256.00 L135.72,255.79 L135.94,255.30 L136.29,254.58 L136.80,253.66 L137.44,252.55 L138.22,251.27 L139.14,249.82 L140.20,248.22 L141.39,246.48 L142.71,244.61 L144.16,242.60 L145.73,240.48 L147.43,238.24 L149.24,235.90 L151.17,233.46 L153.21,230.94 L155.35,228.33 L157.59,225.64 L159.93,222.89 L162.35,220.07 L164.86,217.21 L167.45,214.29 L170.11,211.34 L172.84,208.36 L175.63,205.36 L178.47,202.34 L181.36,199.31 L184.29,196.28 L187.25,193.25 L190.24,190.24 L193.25,187.25 L196.28,184.29 L199.31,181.36 L202.34,178.47 L205.36,175.63 L208.36,172.84 L211.34,170.11 L214.29,167.45 L217.21,164.86 L220.07,162.35 L222.89,159.93 L225.64,157.59 L228.33,155.35 L230.94,153.21 L233.46,151.17 L235.90,149.24 L238.24,147.43 L240.48,145.73 L242.60,144.16 L244.61,142.71 L246.48,141.39 L248.22,140.20 L249.82,139.14 L251.27,138.22 L252.55,137.44 L253.66,136.80 L254.58,136.29 L255.30,135.94 L255.79,135.72 L256.00,135.65 L256.21,135.72 L256.70,135.94 L257.42,136.29 L258.34,136.80 L259.45,137.44 L260.73,138.22 L262.18,139.14 L263.78,140.20 L265.52,141.39 L267.39,142.71 L269.40,144.16 L271.52,145.73 L273.76,147.43 L276.10,149.24 L278.54,151.17 L281.06,153.21 L283.67,155.35 L286.36,157.59 L289.11,159.93 L291.93,162.35 L294.79,164.86 L297.71,167.45 L300.66,170.11 L303.64,172.84 L306.64,175.63 L309.66,178.47 L312.69,181.36 L315.72,184.29 L318.75,187.25 L321.76,190.24 L324.75,193.25 L327.71,196.28 L330.64,199.31 L333.53,202.34 L336.37,205.36 L339.16,208.36 L341.89,211.34 L344.55,214.29 L347.14,217.21 L349.65,220.07 L352.07,222.89 L354.41,225.64 L356.65,228.33 L358.79,230.94 L360.83,233.46 L362.76,235.90 L364.57,238.24 L366.27,240.48 L367.84,242.60 L369.29,244.61 L370.61,246.48 L371.80,248.22 L372.86,249.82 L373.78,251.27 L374.56,252.55 L375.20,253.66 L375.71,254.58 L376.06,255.30 L376.28,255.79Z" fill="none" stroke="url(#g)" stroke-width="2.69" stroke-opacity="0.81"/>
<path d="M362.95,256.00 L362.89,256.37 L362.72,257.08 L362.44,258.02 L362.04,259.16 L361.53,260.47 L360.91,261.93 L360.17,263.53 L359.33,265.24 L358.38,267.07 L357.33,269.01 L356.17,271.03 L354.90,273.15 L353.54,275.34 L352.09,277.60 L350.53,279.93 L348.89,282.31 L347.16,284.75 L345.34,287.23 L343.45,289.75 L341.47,292.30 L339.42,294.88 L337.30,297.48 L335.11,300.09 L332.86,302.71 L330.55,305.34 L328.19,307.96 L325.78,310.57 L323.33,313.17 L320.84,315.75 L318.31,318.31 L315.75,320.84 L313.17,323.33 L310.57,325.78 L307.96,328.19 L305.34,330.55 L302.71,332.86 L300.09,335.11 L297.48,337.30 L294.88,339.42 L292.30,341.47 L289.75,343.45 L287.23,345.34 L284.75,347.16 L282.31,348.89 L279.93,350.53 L277.60,352.09 L275.34,353.54 L273.15,354.90 L271.03,356.17 L269.01,357.33 L267.07,358.38 L265.24,359.33 L263.53,360.17 L261.93,360.91 L260.47,361.53 L259.16,362.04 L258.02,362.44 L257.08,362.72 L256.37,362.89 L256.00,362.95 L255.63,362.89 L254.92,362.72 L253.98,362.44 L252.84,362.04 L251.53,361.53 L250.07,360.91 L248.47,360.17 L246.76,359.33 L244.93,358.38 L242.99,357.33 L240.97,356.17 L238.85,354.90 L236.66,353.54 L234.40,352.09 L232.07,350.53 L229.69,348.89 L227.25,347.16 L224.77,345.34 L222.25,343.45 L219.70,341.47 L217.12,339.42 L214.52,337.30 L211.91,335.11 L209.29,332.86 L206.66,330.55 L204.04,328.19 L201.43,325.78 L198.83,323.33 L196.25,320.84 L193.69,318.31 L191.16,315.75 L188.67,313.17 L186.22,310.57 L183.81,307.96 L181.45,305.34 L179.14,302.71 L176.89,300.09 L174.70,297.48 L172.58,294.88 L170.53,292.30 L168.55,289.75 L166.66,287.23 L164.84,284.75 L163.11,282.31 L161.47,279.93 L159.91,277.60 L158.46,275.34 L157.10,273.15 L155.83,271.03 L154.67,269.01 L153.62,267.07 L152.67,265.24 L151.83,263.53 L151.09,261.93 L150.47,260.47 L149.96,259.16 L149.56,258.02 L149.28,257.08 L149.11,256.37 L149.05,256.00 L149.11,255.63 L149.28,254.92 L149.56,253.98 L149.96,252.84 L150.47,251.53 L151.09,250.07 L151.83,248.47 L152.67,246.76 L153.62,244.93 L154.67,242.99 L155.83,240.97 L157.10,238.85 L158.46,236.66 L159.91,234.40 L161.47,232.07 L163.11,229.69 L164.84,227.25 L166.66,224.77 L168.55,222.25 L170.53,219.70 L172.58,217.12 L174.70,214.52 L176.89,211.91 L179.14,209.29 L181.45,206.66 L183.81,204.04 L186.22,201.43 L188.67,198.83 L191.16,196.25 L193.69,193.69 L196.25,191.16 L198.83,188.67 L201.43,186.22 L204.04,183.81 L206.66,181.45 L209.29,179.14 L211.91,176.89 L214.52,174.70 L217.12,172.58 L219.70,170.53 L222.25,168.55 L224.77,166.66 L227.25,164.84 L229.69,163.11 L232.07,161.47 L234.40,159.91 L236.66,158.46 L238.85,157.10 L240.97,155.83 L242.99,154.67 L244.93,153.62 L246.76,152.67 L248.47,151.83 L250.07,151.09 L251.53,150.47 L252.84,149.96 L253.98,149.56 L254.92,149.28 L255.63,149.11 L256.00,149.05 L256.37,149.11 L257.08,149.28 L258.02,149.56 L259.16,149.96 L260.47,150.47 L261.93,151.09 L263.53,151.83 L265.24,152.67 L267.07,153.62 L269.01,154.67 L271.03,155.83 L273.15,157.10 L275.34,158.46 L277.60,159.91 L279.93,161.47 L282.31,163.11 L284.75,164.84 L287.23,166.66 L289.75,168.55 L292.30,170.53 L294.88,172.58 L297.48,174.70 L300.09,176.89 L302.71,179.14 L305.34,181.45 L307.96,183.81 L310.57,186.22 L313.17,188.67 L315.75,191.16 L318.31,193.69 L320.84,196.25 L323.33,198.83 L325.78,201.43 L328.19,204.04 L330.55,206.66 L332.86,209.29 L335.11,211.91 L337.30,214.52 L339.42,217.12 L341.47,219.70 L343.45,222.25 L345.34,224.77 L347.16,227.25 L348.89,229.69 L350.53,232.07 L352.09,234.40 L353.54,236.66 L354.90,238.85 L356.17,240.97 L357.33,242.99 L358.38,244.93 L359.33,246.76 L360.17,248.47 L360.91,250.07 L361.53,251.53 L362.04,252.84 L362.44,253.98 L362.72,254.92 L362.89,255.63Z" fill="none" stroke="url(#g)" stroke-width="2.58" stroke-opacity="0.75"/>
<path d="M350.37,256.00 L350.33,256.54 L350.19,257.45 L349.96,258.57 L349.64,259.86 L349.23,261.28 L348.73,262.83 L348.14,264.47 L347.47,266.21 L346.70,268.03 L345.85,269.92 L344.92,271.88 L343.90,273.90 L342.80,275.96 L341.62,278.07 L340.37,280.22 L339.03,282.41 L337.63,284.62 L336.15,286.85 L334.60,289.10 L332.98,291.37 L331.30,293.64 L329.56,295.92 L327.76,298.20 L325.91,300.47 L324.00,302.74 L322.04,304.99 L320.04,307.22 L317.99,309.43 L315.90,311.62 L313.78,313.78 L311.62,315.90 L309.43,317.99 L307.22,320.04 L304.99,322.04 L302.74,324.00 L300.47,325.91 L298.20,327.76 L295.92,329.56 L293.64,331.30 L291.37,332.98 L289.10,334.60 L286.85,336.15 L284.62,337.63 L282.41,339.03 L280.22,340.37 L278.07,341.62 L275.96,342.80 L273.90,343.90 L271.88,344.92 L269.92,345.85 L268.03,346.70 L266.21,347.47 L264.47,348.14 L262.83,348.73 L261.28,349.23 L259.86,349.64 L258.57,349.96 L257.45,350.19 L256.54,350.33 L256.00,350.37 L255.46,350.33 L254.55,350.19 L253.43,349.96 L252.14,349.64 L250.72,349.23 L249.17,348.73 L247.53,348.14 L245.79,347.47 L243.97,346.70 L242.08,345.85 L240.12,344.92 L238.10,343.90 L236.04,342.80 L233.93,341.62 L231.78,340.37 L229.59,339.03 L227.38,337.63 L225.15,336.15 L222.90,334.60 L220.63,332.98 L218.36,331.30 L216.08,329.56 L213.80,327.76 L211.53,325.91 L209.26,324.00 L207.01,322.04 L204.78,320.04 L202.57,317.99 L200.38,315.90 L198.22,313.78 L196.10,311.62 L194.01,309.43 L191.96,307.22 L189.96,304.99 L188.00,302.74 L186.09,300.47 L184.24,298.20 L182.44,295.92 L180.70,293.64 L179.02,291.37 L177.40,289.10 L175.85,286.85 L174.37,284.62 L172.97,282.41 L171.63,280.22 L170.38,278.07 L169.20,275.96 L168.10,273.90 L167.08,271.88 L166.15,269.92 L165.30,268.03 L164.53,266.21 L163.86,264.47 L163.27,262.83 L162.77,261.28 L162.36,259.86 L162.04,258.57 L161.81,257.45 L161.67,256.54 L161.63,256.00 L161.67,255.46 L161.81,254.55 L162.04,253.43 L162.36,252.14 L162.77,250.72 L163.27,249.17 L163.86,247.53 L164.53,245.79 L165.30,243.97 L166.15,242.08 L167.08,240.12 L168.10,238.10 L169.20,236.04 L170.38,233.93 L171.63,231.78 L172.97,229.59 L174.37,227.38 L175.85,225.15 L177.40,222.90 L179.02,220.63 L180.70,218.36 L182.44,216.08 L184.24,213.80 L186.09,211.53 L188.00,209.26 L189.96,207.01 L191.96,204.78 L194.01,202.57 L196.10,200.38 L198.22,198.22 L200.38,196.10 L202.57,194.01 L204.78,191.96 L207.01,189.96 L209.26,188.00 L211.53,186.09 L213.80,184.24 L216.08,182.44 L218.36,180.70 L220.63,179.02 L222.90,177.40 L225.15,175.85 L227.38,174.37 L229.59,172.97 L231.78,171.63 L233.93,170.38 L236.04,169.20 L238.10,168.10 L240.12,167.08 L242.08,166.15 L243.97,165.30 L245.79,164.53 L247.53,163.86 L249.17,163.27 L250.72,162.77 L252.14,162.36 L253.43,162.04 L254.55,161.81 L255.46,161.67 L256.00,161.63 L256.54,161.67 L257.45,161.81 L258.57,162.04 L259.86,162.36 L261.28,162.77 L262.83,163.27 L264.47,163.86 L266.21,164.53 L268.03,165.30 L269.92,166.15 L271.88,167.08 L273.90,168.10 L275.96,169.20 L278.07,170.38 L280.22,171.63 L282.41,172.97 L284.62,174.37 L286.85,175.85 L289.10,177.40 L291.37,179.02 L293.64,180.70 L295.92,182.44 L298.20,184.24 L300.47,186.09 L302.74,188.00 L304.99,189.96 L307.22,191.96 L309.43,194.01 L311.62,196.10 L313.78,198.22 L315.90,200.38 L317.99,202.57 L320.04,204.78 L322.04,207.01 L324.00,209.26 L325.91,211.53 L327.76,213.80 L329.56,216.08 L331.30,218.36 L332.98,220.63 L334.60,222.90 L336.15,225.15 L337.63,227.38 L339.03,229.59 L340.37,231.78 L341.62,233.93 L342.80,236.04 L343.90,238.10 L344.92,240.12 L345.85,242.08 L346.70,243.97 L347.47,245.79 L348.14,247.53 L348.73,249.17 L349.23,250.72 L349.64,252.14 L349.96,253.43 L350.19,254.55 L350.33,255.46Z" fill="none" stroke="url(#g)" stroke-width="2.47" stroke-opacity="0.69"/>
<path d="M338.41,256.00 L338.38,256.72 L338.26,257.77 L338.08,259.00 L337.82,260.36 L337.50,261.83 L337.09,263.37 L336.62,264.99 L336.08,266.68 L335.46,268.41 L334.78,270.20 L334.02,272.02 L333.20,273.88 L332.32,275.77 L331.36,277.68 L330.34,279.62 L329.26,281.56 L328.12,283.53 L326.92,285.49 L325.66,287.47 L324.34,289.44 L322.97,291.41 L321.55,293.38 L320.07,295.33 L318.55,297.28 L316.98,299.20 L315.36,301.11 L313.70,303.00 L312.01,304.86 L310.27,306.69 L308.50,308.50 L306.69,310.27 L304.86,312.01 L303.00,313.70 L301.11,315.36 L299.20,316.98 L297.28,318.55 L295.33,320.07 L293.38,321.55 L291.41,322.97 L289.44,324.34 L287.47,325.66 L285.49,326.92 L283.53,328.12 L281.56,329.26 L279.62,330.34 L277.68,331.36 L275.77,332.32 L273.88,333.20 L272.02,334.02 L270.20,334.78 L268.41,335.46 L266.68,336.08 L264.99,336.62 L263.37,337.09 L261.83,337.50 L260.36,337.82 L259.00,338.08 L257.77,338.26 L256.72,338.38 L256.00,338.41 L255.28,338.38 L254.23,338.26 L253.00,338.08 L251.64,337.82 L250.17,337.50 L248.63,337.09 L247.01,336.62 L245.32,336.08 L243.59,335.46 L241.80,334.78 L239.98,334.02 L238.12,333.20 L236.23,332.32 L234.32,331.36 L232.38,330.34 L230.44,329.26 L228.47,328.12 L226.51,326.92 L224.53,325.66 L222.56,324.34 L220.59,322.97 L218.62,321.55 L216.67,320.07 L214.72,318.55 L212.80,316.98 L210.89,315.36 L209.00,313.70 L207.14,312.01 L205.31,310.27 L203.50,308.50 L201.73,306.69 L199.99,304.86 L198.30,303.00 L196.64,301.11 L195.02,299.20 L193.45,297.28 L191.93,295.33 L190.45,293.38 L189.03,291.41 L187.66,289.44 L186.34,287.47 L185.08,285.49 L183.88,283.53 L182.74,281.56 L181.66,279.62 L180.64,277.68 L179.68,275.77 L178.80,273.88 L177.98,272.02 L177.22,270.20 L176.54,268.41 L175.92,266.68 L175.38,264.99 L174.91,263.37 L174.50,261.83 L174.18,260.36 L173.92,259.00 L173.74,257.77 L173.62,256.72 L173.59,256.00 L173.62,255.28 L173.74,254.23 L173.92,253.00 L174.18,251.64 L174.50,250.17 L174.91,248.63 L175.38,247.01 L175.92,245.32 L176.54,243.59 L177.22,241.80 L177.98,239.98 L178.80,238.12 L179.68,236.23 L180.64,234.32 L181.66,232.38 L182.74,230.44 L183.88,228.47 L185.08,226.51 L186.34,224.53 L187.66,222.56 L189.03,220.59 L190.45,218.62 L191.93,216.67 L193.45,214.72 L195.02,212.80 L196.64,210.89 L198.30,209.00 L199.99,207.14 L201.73,205.31 L203.50,203.50 L205.31,201.73 L207.14,199.99 L209.00,198.30 L210.89,196.64 L212.80,195.02 L214.72,193.45 L216.67,191.93 L218.62,190.45 L220.59,189.03 L222.56,187.66 L224.53,186.34 L226.51,185.08 L228.47,183.88 L230.44,182.74 L232.38,181.66 L234.32,180.64 L236.23,179.68 L238.12,178.80 L239.98,177.98 L241.80,177.22 L243.59,176.54 L245.32,175.92 L247.01,175.38 L248.63,174.91 L250.17,174.50 L251.64,174.18 L253.00,173.92 L254.23,173.74 L255.28,173.62 L256.00,173.59 L256.72,173.62 L257.77,173.74 L259.00,173.92 L260.36,174.18 L261.83,174.50 L263.37,174.91 L264.99,175.38 L266.68,175.92 L268.41,176.54 L270.20,177.22 L272.02,177.98 L273.88,178.80 L275.77,179.68 L277.68,180.64 L279.62,181.66 L281.56,182.74 L283.53,183.88 L285.49,185.08 L287.47,186.34 L289.44,187.66 L291.41,189.03 L293.38,190.45 L295.33,191.93 L297.28,193.45 L299.20,195.02 L301.11,196.64 L303.00,198.30 L304.86,199.99 L306.69,201.73 L308.50,203.50 L310.27,205.31 L312.01,207.14 L313.70,209.00 L315.36,210.89 L316.98,212.80 L318.55,214.72 L320.07,216.67 L321.55,218.62 L322.97,220.59 L324.34,222.56 L325.66,224.53 L326.92,226.51 L328.12,228.47 L329.26,230.44 L330.34,232.38 L331.36,234.32 L332.32,236.23 L333.20,238.12 L334.02,239.98 L334.78,241.80 L335.46,243.59 L336.08,245.32 L336.62,247.01 L337.09,248.63 L337.50,250.17 L337.82,251.64 L338.08,253.00 L338.26,254.23 L338.38,255.28Z" fill="none" stroke="url(#g)" stroke-width="2.37" stroke-opacity="0.63"/>
<path d="M326.94,256.00 L326.91,256.87 L326.82,258.02 L326.68,259.29 L326.47,260.65 L326.21,262.08 L325.89,263.56 L325.51,265.09 L325.08,266.66 L324.58,268.26 L324.04,269.89 L323.43,271.53 L322.77,273.20 L322.06,274.88 L321.30,276.56 L320.48,278.26 L319.61,279.96 L318.69,281.66 L317.72,283.36 L316.70,285.05 L315.64,286.74 L314.53,288.41 L313.37,290.08 L312.17,291.73 L310.93,293.36 L309.65,294.98 L308.33,296.57 L306.98,298.14 L305.58,299.69 L304.16,301.21 L302.70,302.70 L301.21,304.16 L299.69,305.58 L298.14,306.98 L296.57,308.33 L294.98,309.65 L293.36,310.93 L291.73,312.17 L290.08,313.37 L288.41,314.53 L286.74,315.64 L285.05,316.70 L283.36,317.72 L281.66,318.69 L279.96,319.61 L278.26,320.48 L276.56,321.30 L274.88,322.06 L273.20,322.77 L271.53,323.43 L269.89,324.04 L268.26,324.58 L266.66,325.08 L265.09,325.51 L263.56,325.89 L262.08,326.21 L260.65,326.47 L259.29,326.68 L258.02,326.82 L256.87,326.91 L256.00,326.94 L255.13,326.91 L253.98,326.82 L252.71,326.68 L251.35,326.47 L249.92,326.21 L248.44,325.89 L246.91,325.51 L245.34,325.08 L243.74,324.58 L242.11,324.04 L240.47,323.43 L238.80,322.77 L237.12,322.06 L235.44,321.30 L233.74,320.48 L232.04,319.61 L230.34,318.69 L228.64,317.72 L226.95,316.70 L225.26,315.64 L223.59,314.53 L221.92,313.37 L220.27,312.17 L218.64,310.93 L217.02,309.65 L215.43,308.33 L213.86,306.98 L212.31,305.58 L210.79,304.16 L209.30,302.70 L207.84,301.21 L206.42,299.69 L205.02,298.14 L203.67,296.57 L202.35,294.98 L201.07,293.36 L199.83,291.73 L198.63,290.08 L197.47,288.41 L196.36,286.74 L195.30,285.05 L194.28,283.36 L193.31,281.66 L192.39,279.96 L191.52,278.26 L190.70,276.56 L189.94,274.88 L189.23,273.20 L188.57,271.53 L187.96,269.89 L187.42,268.26 L186.92,266.66 L186.49,265.09 L186.11,263.56 L185.79,262.08 L185.53,260.65 L185.32,259.29 L185.18,258.02 L185.09,256.87 L185.06,256.00 L185.09,255.13 L185.18,253.98 L185.32,252.71 L185.53,251.35 L185.79,249.92 L186.11,248.44 L186.49,246.91 L186.92,245.34 L187.42,243.74 L187.96,242.11 L188.57,240.47 L189.23,238.80 L189.94,237.12 L190.70,235.44 L191.52,233.74 L192.39,232.04 L193.31,230.34 L194.28,228.64 L195.30,226.95 L196.36,225.26 L197.47,223.59 L198.63,221.92 L199.83,220.27 L201.07,218.64 L202.35,217.02 L203.67,215.43 L205.02,213.86 L206.42,212.31 L207.84,210.79 L209.30,209.30 L210.79,207.84 L212.31,206.42 L213.86,205.02 L215.43,203.67 L217.02,202.35 L218.64,201.07 L220.27,199.83 L221.92,198.63 L223.59,197.47 L225.26,196.36 L226.95,195.30 L228.64,194.28 L230.34,193.31 L232.04,192.39 L233.74,191.52 L235.44,190.70 L237.12,189.94 L238.80,189.23 L240.47,188.57 L242.11,187.96 L243.74,187.42 L245.34,186.92 L246.91,186.49 L248.44,186.11 L249.92,185.79 L251.35,185.53 L252.71,185.32 L253.98,185.18 L255.13,185.09 L256.00,185.06 L256.87,185.09 L258.02,185.18 L259.29,185.32 L260.65,185.53 L262.08,185.79 L263.56,186.11 L265.09,186.49 L266.66,186.92 L268.26,187.42 L269.89,187.96 L271.53,188.57 L273.20,189.23 L274.88,189.94 L276.56,190.70 L278.26,191.52 L279.96,192.39 L281.66,193.31 L283.36,194.28 L285.05,195.30 L286.74,196.36 L288.41,197.47 L290.08,198.63 L291.73,199.83 L293.36,201.07 L294.98,202.35 L296.57,203.67 L298.14,205.02 L299.69,206.42 L301.21,207.84 L302.70,209.30 L304.16,210.79 L305.58,212.31 L306.98,213.86 L308.33,215.43 L309.65,217.02 L310.93,218.64 L312.17,220.27 L313.37,221.92 L314.53,223.59 L315.64,225.26 L316.70,226.95 L317.72,228.64 L318.69,230.34 L319.61,232.04 L320.48,233.74 L321.30,235.44 L322.06,237.12 L322.77,238.80 L323.43,240.47 L324.04,242.11 L324.58,243.74 L325.08,245.34 L325.51,246.91 L325.89,248.44 L326.21,249.92 L326.47,251.35 L326.68,252.71 L326.82,253.98 L326.91,255.13Z" fill="none" stroke="url(#g)" stroke-width="2.27" stroke-opacity="0.57"/>
<path d="M315.88,256.00 L315.85,256.99 L315.78,258.15 L315.67,259.40 L315.51,260.70 L315.30,262.03 L315.05,263.40 L314.75,264.79 L314.40,266.20 L314.01,267.62 L313.58,269.05 L313.10,270.49 L312.58,271.94 L312.02,273.38 L311.41,274.83 L310.76,276.28 L310.07,277.72 L309.34,279.16 L308.57,280.59 L307.76,282.00 L306.91,283.41 L306.03,284.81 L305.10,286.19 L304.15,287.55 L303.15,288.89 L302.12,290.22 L301.06,291.53 L299.97,292.81 L298.85,294.07 L297.69,295.30 L296.51,296.51 L295.30,297.69 L294.07,298.85 L292.81,299.97 L291.53,301.06 L290.22,302.12 L288.89,303.15 L287.55,304.15 L286.19,305.10 L284.81,306.03 L283.41,306.91 L282.00,307.76 L280.59,308.57 L279.16,309.34 L277.72,310.07 L276.28,310.76 L274.83,311.41 L273.38,312.02 L271.94,312.58 L270.49,313.10 L269.05,313.58 L267.62,314.01 L266.20,314.40 L264.79,314.75 L263.40,315.05 L262.03,315.30 L260.70,315.51 L259.40,315.67 L258.15,315.78 L256.99,315.85 L256.00,315.88 L255.01,315.85 L253.85,315.78 L252.60,315.67 L251.30,315.51 L249.97,315.30 L248.60,315.05 L247.21,314.75 L245.80,314.40 L244.38,314.01 L242.95,313.58 L241.51,313.10 L240.06,312.58 L238.62,312.02 L237.17,311.41 L235.72,310.76 L234.28,310.07 L232.84,309.34 L231.41,308.57 L230.00,307.76 L228.59,306.91 L227.19,306.03 L225.81,305.10 L224.45,304.15 L223.11,303.15 L221.78,302.12 L220.47,301.06 L219.19,299.97 L217.93,298.85 L216.70,297.69 L215.49,296.51 L214.31,295.30 L213.15,294.07 L212.03,292.81 L210.94,291.53 L209.88,290.22 L208.85,288.89 L207.85,287.55 L206.90,286.19 L205.97,284.81 L205.09,283.41 L204.24,282.00 L203.43,280.59 L202.66,279.16 L201.93,277.72 L201.24,276.28 L200.59,274.83 L199.98,273.38 L199.42,271.94 L198.90,270.49 L198.42,269.05 L197.99,267.62 L197.60,266.20 L197.25,264.79 L196.95,263.40 L196.70,262.03 L196.49,260.70 L196.33,259.40 L196.22,258.15 L196.15,256.99 L196.12,256.00 L196.15,255.01 L196.22,253.85 L196.33,252.60 L196.49,251.30 L196.70,249.97 L196.95,248.60 L197.25,247.21 L197.60,245.80 L197.99,244.38 L198.42,242.95 L198.90,241.51 L199.42,240.06 L199.98,238.62 L200.59,237.17 L201.24,235.72 L201.93,234.28 L202.66,232.84 L203.43,231.41 L204.24,230.00 L205.09,228.59 L205.97,227.19 L206.90,225.81 L207.85,224.45 L208.85,223.11 L209.88,221.78 L210.94,220.47 L212.03,219.19 L213.15,217.93 L214.31,216.70 L215.49,215.49 L216.70,214.31 L217.93,213.15 L219.19,212.03 L220.47,210.94 L221.78,209.88 L223.11,208.85 L224.45,207.85 L225.81,206.90 L227.19,205.97 L228.59,205.09 L230.00,204.24 L231.41,203.43 L232.84,202.66 L234.28,201.93 L235.72,201.24 L237.17,200.59 L238.62,199.98 L240.06,199.42 L241.51,198.90 L242.95,198.42 L244.38,197.99 L245.80,197.60 L247.21,197.25 L248.60,196.95 L249.97,196.70 L251.30,196.49 L252.60,196.33 L253.85,196.22 L255.01,196.15 L256.00,196.12 L256.99,196.15 L258.15,196.22 L259.40,196.33 L260.70,196.49 L262.03,196.70 L263.40,196.95 L264.79,197.25 L266.20,197.60 L267.62,197.99 L269.05,198.42 L270.49,198.90 L271.94,199.42 L273.38,199.98 L274.83,200.59 L276.28,201.24 L277.72,201.93 L279.16,202.66 L280.59,203.43 L282.00,204.24 L283.41,205.09 L284.81,205.97 L286.19,206.90 L287.55,207.85 L288.89,208.85 L290.22,209.88 L291.53,210.94 L292.81,212.03 L294.07,213.15 L295.30,214.31 L296.51,215.49 L297.69,216.70 L298.85,217.93 L299.97,219.19 L301.06,220.47 L302.12,221.78 L303.15,223.11 L304.15,224.45 L305.10,225.81 L306.03,227.19 L306.91,228.59 L307.76,230.00 L308.57,231.41 L309.34,232.84 L310.07,234.28 L310.76,235.72 L311.41,237.17 L312.02,238.62 L312.58,240.06 L313.10,241.51 L313.58,242.95 L314.01,244.38 L314.40,245.80 L314.75,247.21 L315.05,248.60 L315.30,249.97 L315.51,251.30 L315.67,252.60 L315.78,253.85 L315.85,255.01Z" fill="none" stroke="url(#g)" stroke-width="2.16" stroke-opacity="0.50"/>
<path d="M305.15,256.00 L305.13,257.04 L305.08,258.16 L304.99,259.32 L304.87,260.50 L304.71,261.69 L304.51,262.89 L304.28,264.10 L304.01,265.31 L303.71,266.53 L303.38,267.74 L303.01,268.96 L302.61,270.17 L302.17,271.38 L301.70,272.58 L301.20,273.77 L300.66,274.96 L300.09,276.13 L299.50,277.30 L298.87,278.45 L298.21,279.59 L297.51,280.71 L296.79,281.83 L296.05,282.92 L295.27,284.00 L294.46,285.06 L293.63,286.10 L292.77,287.12 L291.89,288.12 L290.98,289.09 L290.05,290.05 L289.09,290.98 L288.12,291.89 L287.12,292.77 L286.10,293.63 L285.06,294.46 L284.00,295.27 L282.92,296.05 L281.83,296.79 L280.71,297.51 L279.59,298.21 L278.45,298.87 L277.30,299.50 L276.13,300.09 L274.96,300.66 L273.77,301.20 L272.58,301.70 L271.38,302.17 L270.17,302.61 L268.96,303.01 L267.74,303.38 L266.53,303.71 L265.31,304.01 L264.10,304.28 L262.89,304.51 L261.69,304.71 L260.50,304.87 L259.32,304.99 L258.16,305.08 L257.04,305.13 L256.00,305.15 L254.96,305.13 L253.84,305.08 L252.68,304.99 L251.50,304.87 L250.31,304.71 L249.11,304.51 L247.90,304.28 L246.69,304.01 L245.47,303.71 L244.26,303.38 L243.04,303.01 L241.83,302.61 L240.62,302.17 L239.42,301.70 L238.23,301.20 L237.04,300.66 L235.87,300.09 L234.70,299.50 L233.55,298.87 L232.41,298.21 L231.29,297.51 L230.17,296.79 L229.08,296.05 L228.00,295.27 L226.94,294.46 L225.90,293.63 L224.88,292.77 L223.88,291.89 L222.91,290.98 L221.95,290.05 L221.02,289.09 L220.11,288.12 L219.23,287.12 L218.37,286.10 L217.54,285.06 L216.73,284.00 L215.95,282.92 L215.21,281.83 L214.49,280.71 L213.79,279.59 L213.13,278.45 L212.50,277.30 L211.91,276.13 L211.34,274.96 L210.80,273.77 L210.30,272.58 L209.83,271.38 L209.39,270.17 L208.99,268.96 L208.62,267.74 L208.29,266.53 L207.99,265.31 L207.72,264.10 L207.49,262.89 L207.29,261.69 L207.13,260.50 L207.01,259.32 L206.92,258.16 L206.87,257.04 L206.85,256.00 L206.87,254.96 L206.92,253.84 L207.01,252.68 L207.13,251.50 L207.29,250.31 L207.49,249.11 L207.72,247.90 L207.99,246.69 L208.29,245.47 L208.62,244.26 L208.99,243.04 L209.39,241.83 L209.83,240.62 L210.30,239.42 L210.80,238.23 L211.34,237.04 L211.91,235.87 L212.50,234.70 L213.13,233.55 L213.79,232.41 L214.49,231.29 L215.21,230.17 L215.95,229.08 L216.73,228.00 L217.54,226.94 L218.37,225.90 L219.23,224.88 L220.11,223.88 L221.02,222.91 L221.95,221.95 L222.91,221.02 L223.88,220.11 L224.88,219.23 L225.90,218.37 L226.94,217.54 L228.00,216.73 L229.08,215.95 L230.17,215.21 L231.29,214.49 L232.41,213.79 L233.55,213.13 L234.70,212.50 L235.87,211.91 L237.04,211.34 L238.23,210.80 L239.42,210.30 L240.62,209.83 L241.83,209.39 L243.04,208.99 L244.26,208.62 L245.47,208.29 L246.69,207.99 L247.90,207.72 L249.11,207.49 L250.31,207.29 L251.50,207.13 L252.68,207.01 L253.84,206.92 L254.96,206.87 L256.00,206.85 L257.04,206.87 L258.16,206.92 L259.32,207.01 L260.50,207.13 L261.69,207.29 L262.89,207.49 L264.10,207.72 L265.31,207.99 L266.53,208.29 L267.74,208.62 L268.96,208.99 L270.17,209.39 L271.38,209.83 L272.58,210.30 L273.77,210.80 L274.96,211.34 L276.13,211.91 L277.30,212.50 L278.45,213.13 L279.59,213.79 L280.71,214.49 L281.83,215.21 L282.92,215.95 L284.00,216.73 L285.06,217.54 L286.10,218.37 L287.12,219.23 L288.12,220.11 L289.09,221.02 L290.05,221.95 L290.98,222.91 L291.89,223.88 L292.77,224.88 L293.63,225.90 L294.46,226.94 L295.27,228.00 L296.05,229.08 L296.79,230.17 L297.51,231.29 L298.21,232.41 L298.87,233.55 L299.50,234.70 L300.09,235.87 L300.66,237.04 L301.20,238.23 L301.70,239.42 L302.17,240.62 L302.61,241.83 L303.01,243.04 L303.38,244.26 L303.71,245.47 L304.01,246.69 L304.28,247.90 L304.51,249.11 L304.71,250.31 L304.87,251.50 L304.99,252.68 L305.08,253.84 L305.13,254.96Z" fill="none" stroke="url(#g)" stroke-width="2.06" stroke-opacity="0.44"/>
<path d="M294.72,256.00 L294.71,257.01 L294.67,258.03 L294.60,259.04 L294.51,260.05 L294.39,261.05 L294.24,262.06 L294.07,263.06 L293.87,264.05 L293.65,265.04 L293.40,266.02 L293.13,267.00 L292.82,267.97 L292.50,268.93 L292.15,269.88 L291.77,270.82 L291.37,271.75 L290.95,272.67 L290.50,273.58 L290.03,274.48 L289.53,275.36 L289.01,276.23 L288.47,277.09 L287.91,277.93 L287.33,278.76 L286.72,279.57 L286.09,280.37 L285.44,281.15 L284.77,281.91 L284.09,282.65 L283.38,283.38 L282.65,284.09 L281.91,284.77 L281.15,285.44 L280.37,286.09 L279.57,286.72 L278.76,287.33 L277.93,287.91 L277.09,288.47 L276.23,289.01 L275.36,289.53 L274.48,290.03 L273.58,290.50 L272.67,290.95 L271.75,291.37 L270.82,291.77 L269.88,292.15 L268.93,292.50 L267.97,292.82 L267.00,293.13 L266.02,293.40 L265.04,293.65 L264.05,293.87 L263.06,294.07 L262.06,294.24 L261.05,294.39 L260.05,294.51 L259.04,294.60 L258.03,294.67 L257.01,294.71 L256.00,294.72 L254.99,294.71 L253.97,294.67 L252.96,294.60 L251.95,294.51 L250.95,294.39 L249.94,294.24 L248.94,294.07 L247.95,293.87 L246.96,293.65 L245.98,293.40 L245.00,293.13 L244.03,292.82 L243.07,292.50 L242.12,292.15 L241.18,291.77 L240.25,291.37 L239.33,290.95 L238.42,290.50 L237.52,290.03 L236.64,289.53 L235.77,289.01 L234.91,288.47 L234.07,287.91 L233.24,287.33 L232.43,286.72 L231.63,286.09 L230.85,285.44 L230.09,284.77 L229.35,284.09 L228.62,283.38 L227.91,282.65 L227.23,281.91 L226.56,281.15 L225.91,280.37 L225.28,279.57 L224.67,278.76 L224.09,277.93 L223.53,277.09 L222.99,276.23 L222.47,275.36 L221.97,274.48 L221.50,273.58 L221.05,272.67 L220.63,271.75 L220.23,270.82 L219.85,269.88 L219.50,268.93 L219.18,267.97 L218.87,267.00 L218.60,266.02 L218.35,265.04 L218.13,264.05 L217.93,263.06 L217.76,262.06 L217.61,261.05 L217.49,260.05 L217.40,259.04 L217.33,258.03 L217.29,257.01 L217.28,256.00 L217.29,254.99 L217.33,253.97 L217.40,252.96 L217.49,251.95 L217.61,250.95 L217.76,249.94 L217.93,248.94 L218.13,247.95 L218.35,246.96 L218.60,245.98 L218.87,245.00 L219.18,244.03 L219.50,243.07 L219.85,242.12 L220.23,241.18 L220.63,240.25 L221.05,239.33 L221.50,238.42 L221.97,237.52 L222.47,236.64 L222.99,235.77 L223.53,234.91 L224.09,234.07 L224.67,233.24 L225.28,232.43 L225.91,231.63 L226.56,230.85 L227.23,230.09 L227.91,229.35 L228.62,228.62 L229.35,227.91 L230.09,227.23 L230.85,226.56 L231.63,225.91 L232.43,225.28 L233.24,224.67 L234.07,224.09 L234.91,223.53 L235.77,222.99 L236.64,222.47 L237.52,221.97 L238.42,221.50 L239.33,221.05 L240.25,220.63 L241.18,220.23 L242.12,219.85 L243.07,219.50 L244.03,219.18 L245.00,218.87 L245.98,218.60 L246.96,218.35 L247.95,218.13 L248.94,217.93 L249.94,217.76 L250.95,217.61 L251.95,217.49 L252.96,217.40 L253.97,217.33 L254.99,217.29 L256.00,217.28 L257.01,217.29 L258.03,217.33 L259.04,217.40 L260.05,217.49 L261.05,217.61 L262.06,217.76 L263.06,217.93 L264.05,218.13 L265.04,218.35 L266.02,218.60 L267.00,218.87 L267.97,219.18 L268.93,219.50 L269.88,219.85 L270.82,220.23 L271.75,220.63 L272.67,221.05 L273.58,221.50 L274.48,221.97 L275.36,222.47 L276.23,222.99 L277.09,223.53 L277.93,224.09 L278.76,224.67 L279.57,225.28 L280.37,225.91 L281.15,226.56 L281.91,227.23 L282.65,227.91 L283.38,228.62 L284.09,229.35 L284.77,230.09 L285.44,230.85 L286.09,231.63 L286.72,232.43 L287.33,233.24 L287.91,234.07 L288.47,234.91 L289.01,235.77 L289.53,236.64 L290.03,237.52 L290.50,238.42 L290.95,239.33 L291.37,240.25 L291.77,241.18 L292.15,242.12 L292.50,243.07 L292.82,244.03 L293.13,245.00 L293.40,245.98 L293.65,246.96 L293.87,247.95 L294.07,248.94 L294.24,249.94 L294.39,250.95 L294.51,251.95 L294.60,252.96 L294.67,253.97 L294.71,254.99Z" fill="none" stroke="url(#g)" stroke-width="1.95" stroke-opacity="0.38"/>
<circle cx="256" cy="256" r="7.9" fill="#fff" fill-opacity="0.9"/>
</svg>